<?xml version="1.0" encoding="UTF-8"?>
<svg id="Layer_2" data-name="Layer 2" xmlns="http://www.w3.org/2000/svg" viewBox="0 0 450.19 244.4">
  <defs>
    <style>
      .cls-1 {
        fill: #e9ba2a;
      }

      .cls-1, .cls-2, .cls-3, .cls-4, .cls-5 {
        stroke-width: 0px;
      }

      .cls-2, .cls-6 {
        fill: #231f20;
      }

      .cls-3 {
        fill: #efcd40;
      }

      .cls-7 {
        fill: #cfe9f0;
      }

      .cls-7, .cls-8, .cls-9, .cls-10, .cls-6 {
        stroke-miterlimit: 10;
      }

      .cls-7, .cls-6 {
        stroke: #231f20;
      }

      .cls-4, .cls-10 {
        fill: #282524;
      }

      .cls-8 {
        fill: #bbdff0;
        stroke-width: 3px;
      }

      .cls-8, .cls-9, .cls-10 {
        stroke: #282524;
      }

      .cls-9 {
        fill: #f2cb40;
        stroke-width: 8px;
      }

      .cls-10 {
        stroke-width: 2px;
      }

      .cls-5 {
        fill: #fff;
      }
    </style>
  </defs>
  <g id="Layer_1-2" data-name="Layer 1">
    <g>
      <g>
        <path class="cls-8" d="M337.22,27.66c-1.43,19.01-2.8,19.27,24.32,18.02,11.3-.52,18.16-13.71,15.81-25.81-2.35-12.1-13.24-20.17-24.32-18.02s-14.89,13.6-15.81,25.81Z"/>
        <path class="cls-8" d="M345.12,32.19c9.39,15.35,10.8,14.98-15.41,25.57-10.92,4.41-22.99-3.72-25.88-14.89s4.01-22.62,15.41-25.57c11.4-2.95,19.84,5.03,25.88,14.89Z"/>
        <path class="cls-9" d="M389.73,111.9c-1.65.68-3.37,1.31-5.15,1.89-1.22.39-2.47.75-3.76,1.1-4.48,1.19-8.84,1.94-13,2.28-2.98.27-5.87.31-8.63.14-13.06-.75-23.42-5.95-29.29-14.46-.74-1.06-1.4-2.18-1.98-3.35-.81-1.58-1.47-3.25-1.98-5.01-4.6-15.67,3.82-33.18,22.89-42.7,2.62-1.3,5.41-2.46,8.42-3.42,1.21-.42,2.46-.78,3.72-1.12,3.06-.81,6.04-1.4,8.97-1.77,1.88-.28,3.72-.43,5.51-.52,10.91-.56,20.61,1.76,28.07,6.3.26.14.51.29.76.46,6.45,4.12,11.09,9.95,13.16,17.01,4.87,16.57-6.01,34.28-27.71,43.18Z"/>
        <path class="cls-1" d="M389.73,111.9c-1.65.68-3.37,1.31-5.15,1.89-1.22.39-2.47.75-3.76,1.1-4.48,1.19-8.84,1.94-13,2.28-2.98.27-5.87.31-8.63.14-13.06-.75-23.42-5.95-29.29-14.46-.74-1.06-1.4-2.18-1.98-3.35-.81-1.58-1.47-3.25-1.98-5.01-4.6-15.67,3.82-33.18,22.89-42.7,2.62-1.3,5.41-2.46,8.42-3.42,1.21-.42,2.46-.78,3.72-1.12,3.06-.81,6.04-1.4,8.97-1.77,1.88-.28,3.72-.43,5.51-.52,10.91-.56,20.61,1.76,28.07,6.3.26.14.51.29.76.46,6.45,4.12,11.09,9.95,13.16,17.01,4.87,16.57-6.01,34.28-27.71,43.18Z"/>
        <path class="cls-3" d="M380,98.59c-.12.06-.25.11-.37.17-.59.27-1.16.52-1.76.77-.9.38-1.79.73-2.72,1.05-.15.06-.28.11-.43.15-.65.25-1.32.47-2,.68-1.22.41-2.47.77-3.76,1.1-3.35.88-6.62,1.54-9.79,1.91-.19.04-.37.06-.56.08-.9.13-1.76.21-2.65.28-1.44.14-2.87.21-4.26.22-.28.01-.56.01-.84.01-1.21.01-2.38-.01-3.53-.08-7.47-.45-14.06-2.32-19.41-5.45-.81-1.58-1.47-3.25-1.98-5.01-4.6-15.67,3.82-33.18,22.89-42.7,2.62-1.3,5.41-2.46,8.42-3.42,1.21-.42,2.46-.78,3.72-1.12,3.06-.81,6.04-1.4,8.97-1.77,1.88-.28,3.72-.43,5.51-.52,10.91-.56,20.61,1.76,28.07,6.3.85,1.62,1.54,3.32,2.06,5.11,4.7,15.99-5.31,33.09-25.58,42.23Z"/>
        <path class="cls-10" d="M389.73,111.9c-1.65.68-3.37,1.31-5.15,1.89-2.48-2.78-4.87-5.85-7.04-9.21-.82-1.3-1.63-2.63-2.4-4.01-1.79-3.24-3.41-6.72-4.75-10.48-5.94-16.66-4.26-32.28-.46-44.63,1.88-.28,3.72-.43,5.51-.52-3.91,11.89-5.87,27.2-.04,43.58,1.29,3.62,2.84,6.96,4.59,10.06.78,1.4,1.6,2.74,2.46,4.04,2.23,3.42,4.7,6.51,7.28,9.28Z"/>
        <path class="cls-10" d="M367.83,117.17c-2.98.27-5.87.31-8.63.14-1.97-2.58-3.84-5.38-5.51-8.42-.71-1.24-1.37-2.54-1.98-3.87-1.07-2.17-2.01-4.43-2.87-6.8-6.19-17.45-4.16-33.75,0-46.43,2.62-1.3,5.41-2.46,8.42-3.42-4.88,12.29-8.28,29.36-1.72,47.79,1.04,2.93,2.28,5.7,3.63,8.28.72,1.37,1.47,2.68,2.26,3.95,1.96,3.21,4.12,6.13,6.4,8.79Z"/>
        <ellipse class="cls-5" cx="352.54" cy="15.51" rx="6.12" ry="5.17" transform="translate(8.28 93.04) rotate(-15.21)"/>
        <ellipse class="cls-5" cx="317.33" cy="32.31" rx="6.5" ry="5.5" transform="translate(211.98 333.39) rotate(-76.53)"/>
        <circle class="cls-4" cx="395.25" cy="65.27" r="5.51"/>
        <path class="cls-8" d="M401.01,48.53c.82-3,2.53-7.69,6.32-12.29,2.04-2.48,4.17-4.31,5.97-5.62"/>
        <circle class="cls-4" cx="410.19" cy="30.63" r="7.21"/>
      </g>
      <path class="cls-4" d="M352.16,50.32c3.22,0,3.22-5,0-5s-3.22,5,0,5h0Z"/>
      <path class="cls-7" d="M258.28,166.95c-.99-.44-2.08-.79-3.16-1.15,5.34-2.3,9.34-5.41,11.94-9.36,2.66-4.05,4-8.63,4-13.73,0-9.84-3.74-17.14-11.21-21.89-7.47-4.75-17.99-7.12-31.54-7.12-5.33,0-10.4.23-15.21.69-4.81.46-9.18,1.28-13.12,2.43-1.97.58-3.51,1.42-4.6,2.52-1.1,1.1-1.65,2.69-1.65,4.78v86.89c0,4.52,2.61,7.59,7.82,9.21,2.89.81,5.97,1.48,9.21,2,3.24.52,6.49.87,9.73,1.04,3.24.17,6.37.26,9.38.26,14.48,0,25.63-2.61,33.45-7.82,7.82-5.21,11.73-13.21,11.73-23.98,0-5.44-1.39-10.31-4.17-14.6-2.78-4.28-6.98-7.67-12.6-10.16ZM219.18,128.46c2.84-.23,5.93-.35,9.3-.35,7.99,0,14.02,1.3,18.07,3.91,4.05,2.61,6.08,6.46,6.08,11.56s-1.74,9.24-5.21,12.08c-3.48,2.84-8.75,4.26-15.81,4.26h-19.98v-30.41c2.2-.46,4.72-.81,7.56-1.04ZM249.77,204.58c-4.46,2.9-10.92,4.34-19.38,4.34-3.24,0-6.58-.14-9.99-.43-3.42-.29-6.34-.72-8.77-1.3v-33.36h21.2c7.76,0,13.64,1.54,17.64,4.6,4,3.07,6,7.33,6,12.77,0,6.02-2.23,10.49-6.69,13.38Z"/>
      <path class="cls-6" d="M266.19,167.03c-.94-.42-1.98-.75-3.01-1.1,5.09-2.19,8.89-5.15,11.36-8.91,2.53-3.86,3.81-8.21,3.81-13.07,0-9.37-3.56-16.32-10.67-20.85-7.11-4.52-17.12-6.78-30.03-6.78-5.07,0-9.9.22-14.48.66-4.58.44-8.74,1.22-12.49,2.32-1.88.55-3.34,1.35-4.38,2.4-1.05,1.05-1.57,2.56-1.57,4.55v82.72c0,4.3,2.48,7.23,7.45,8.77,2.76.77,5.68,1.41,8.77,1.9,3.09.5,6.18.83,9.27.99,3.09.16,6.07.25,8.93.25,13.79,0,24.4-2.48,31.85-7.45,7.45-4.96,11.17-12.57,11.17-22.83,0-5.18-1.32-9.82-3.97-13.9-2.65-4.08-6.65-7.3-11.99-9.68ZM228.97,130.39c2.7-.22,5.65-.33,8.85-.33,7.61,0,13.34,1.24,17.21,3.72,3.86,2.48,5.79,6.15,5.79,11s-1.65,8.8-4.96,11.5c-3.31,2.7-8.33,4.05-15.05,4.05h-19.03v-28.95c2.09-.44,4.49-.77,7.2-.99ZM258.09,202.85c-4.25,2.76-10.4,4.14-18.45,4.14-3.09,0-6.26-.14-9.51-.41-3.25-.27-6.04-.69-8.35-1.24v-31.77h20.18c7.39,0,12.99,1.46,16.79,4.38,3.81,2.92,5.71,6.98,5.71,12.16,0,5.74-2.13,9.98-6.37,12.74Z"/>
      <path class="cls-6" d="M345.52,142.28c-5.62-3.07-12.08-4.61-19.38-4.61-5.56,0-10.77.93-15.64,2.78-4.87,1.85-9.1,4.58-12.69,8.17-3.59,3.59-6.4,8.02-8.43,13.29-2.03,5.27-3.04,11.33-3.04,18.16,0,9.5,1.85,17.52,5.56,24.07,3.71,6.55,8.92,11.47,15.64,14.77,6.72,3.3,14.54,4.95,23.46,4.95,5.44,0,10.34-.58,14.68-1.74,4.35-1.16,7.79-2.78,10.34-4.86,2.55-2.09,3.82-4.4,3.82-6.95,0-1.62-.43-3.13-1.3-4.52-.87-1.39-2-2.49-3.39-3.3-2.43,1.74-5.68,3.36-9.73,4.86-4.06,1.51-8.52,2.26-13.38,2.26-8.11,0-14.66-2.05-19.64-6.17-3.94-3.26-6.56-7.86-7.97-13.69l50.89-7.25c2.55-.35,4.52-1.19,5.91-2.52,1.39-1.33,2.08-3.45,2.08-6.34,0-6.95-1.56-13.15-4.69-18.59-3.13-5.44-7.5-9.7-13.12-12.77ZM303.33,176.77c.36-7.78,2.47-13.91,6.48-18.24,4.28-4.63,9.67-6.95,16.16-6.95s11.3,1.82,14.77,5.47c3.48,3.65,5.39,8.2,5.73,13.64l-43.15,6.08Z"/>
      <path class="cls-6" d="M447.61,179.99c1.39-1.33,2.08-3.45,2.08-6.34,0-6.95-1.56-13.15-4.69-18.59-3.13-5.44-7.5-9.7-13.12-12.77-5.62-3.07-12.08-4.61-19.38-4.61-5.56,0-10.77.93-15.64,2.78-4.87,1.85-9.1,4.58-12.69,8.17-3.59,3.59-6.4,8.02-8.43,13.29-2.03,5.27-3.04,11.33-3.04,18.16,0,9.5,1.85,17.52,5.56,24.07,3.71,6.55,8.92,11.47,15.64,14.77,6.72,3.3,14.54,4.95,23.46,4.95,5.44,0,10.34-.58,14.68-1.74,4.35-1.16,7.79-2.78,10.34-4.86,2.55-2.09,3.82-4.4,3.82-6.95,0-1.62-.43-3.13-1.3-4.52-.87-1.39-2-2.49-3.39-3.3-2.43,1.74-5.68,3.36-9.73,4.86-4.06,1.51-8.52,2.26-13.38,2.26-8.11,0-14.66-2.05-19.64-6.17-3.94-3.26-6.56-7.86-7.97-13.69l50.89-7.25c2.55-.35,4.52-1.19,5.91-2.52ZM389.69,176.77c.36-7.78,2.47-13.91,6.48-18.24,4.28-4.63,9.67-6.95,16.16-6.95s11.3,1.82,14.77,5.47c3.48,3.65,5.39,8.2,5.73,13.64l-43.15,6.08Z"/>
      <path class="cls-2" d="M17.14,176.34l-17.14-1.51v-73.26c.67-.22,1.74-.51,3.19-.84,1.45-.34,2.97-.5,4.54-.5,3.25,0,5.63.59,7.14,1.76s2.27,3.22,2.27,6.13v68.22ZM0,166.26l17.14,1.51v42.52c-.67.23-1.74.5-3.19.84-1.46.34-3.02.5-4.71.5-3.14,0-5.46-.62-6.97-1.85-1.51-1.23-2.27-3.25-2.27-6.05v-37.47Z"/>
      <path class="cls-2" d="M104.35,171.3c0,8.4-1.63,15.74-4.87,22.01-3.25,6.27-7.84,11.12-13.78,14.53-5.94,3.42-12.94,5.13-21,5.13s-15.07-1.71-21-5.13c-5.94-3.41-10.53-8.23-13.78-14.45-3.25-6.22-4.87-13.58-4.87-22.1s1.65-15.88,4.96-22.1c3.3-6.22,7.95-11.03,13.95-14.45,5.99-3.42,12.91-5.13,20.75-5.13s14.9,1.71,20.84,5.13c5.94,3.42,10.56,8.23,13.86,14.45,3.3,6.22,4.96,13.59,4.96,22.1ZM64.69,143.58c-6.72,0-12.07,2.46-16.05,7.39-3.98,4.93-5.97,11.71-5.97,20.33s1.93,15.54,5.8,20.42c3.86,4.87,9.27,7.31,16.22,7.31s12.35-2.46,16.22-7.39c3.86-4.93,5.8-11.71,5.8-20.33s-1.96-15.4-5.88-20.33c-3.92-4.93-9.3-7.39-16.13-7.39Z"/>
      <path class="cls-2" d="M146.81,207.93c-6.61,0-12.69-1.26-18.23-3.78-5.55-2.52-10-6.66-13.36-12.43-3.36-5.77-5.04-13.36-5.04-22.77,0-8.62,1.68-15.85,5.04-21.67s8.04-10.22,14.03-13.19c5.99-2.97,12.91-4.45,20.75-4.45,5.49,0,10.53.7,15.12,2.1,4.59,1.4,8.34,3.05,11.26,4.96,1.79,1.23,3.25,2.63,4.37,4.2,1.12,1.57,1.68,3.47,1.68,5.71v52.09h-16.97v-51.08c-1.68-1.01-3.75-1.93-6.22-2.77-2.46-.84-5.43-1.26-8.91-1.26-6.83,0-12.35,2.1-16.55,6.3-4.2,4.2-6.3,10.5-6.3,18.91,0,9.41,2.07,16.02,6.22,19.83,4.14,3.81,9.3,5.71,15.46,5.71,4.59,0,8.29-.78,11.09-2.35,2.8-1.57,5.1-3.25,6.89-5.04l.84,14.45c-1.91,1.68-4.65,3.19-8.23,4.54-3.59,1.34-7.9,2.01-12.94,2.01ZM165.63,211.97v-16.97h16.8v17.81c0,7.51-1.68,13.58-5.04,18.23-3.36,4.65-7.93,8.04-13.69,10.17-5.77,2.13-12.24,3.19-19.41,3.19-5.71,0-10.64-.59-14.79-1.76-4.15-1.18-7.11-2.27-8.91-3.28-3.59-2.13-5.38-4.87-5.38-8.23,0-1.91.42-3.5,1.26-4.79.84-1.29,1.82-2.27,2.94-2.94,2.58,1.79,5.99,3.39,10.25,4.79,4.26,1.4,8.79,2.1,13.61,2.1,7.17,0,12.69-1.46,16.55-4.37,3.87-2.91,5.8-7.56,5.8-13.95Z"/>
    </g>
  </g>
</svg>