<?xml version="1.0" encoding="UTF-8"?>
<svg version="1.1" xmlns="http://www.w3.org/2000/svg" width="391" height="168">
<path d="M0 0 C0.93328125 0.45375 1.8665625 0.9075 2.828125 1.375 C10.82561245 5.48544048 18.80546206 10.50787797 24 18 C20.96397276 16.61692092 18.66045196 14.96812745 16.125 12.8125 C5.38814177 4.39143472 -8.48152796 -1.48418336 -22.1875 -2.5625 C-27.87177485 -1.7238365 -32.81850161 0.58196742 -38 3 C-37.22914062 3.53109375 -36.45828125 4.0621875 -35.6640625 4.609375 C-34.66117187 5.31578125 -33.65828125 6.0221875 -32.625 6.75 C-31.62726563 7.44609375 -30.62953125 8.1421875 -29.6015625 8.859375 C-27.08457888 10.93040657 -26.29084548 12.12325864 -25 15 C-25.49177734 14.68546875 -25.98355469 14.3709375 -26.49023438 14.046875 C-35.83824296 7.90159959 -35.83824296 7.90159959 -46.47021484 6.35888672 C-51.4703109 8.11063163 -55.74042056 10.89197583 -60 14 C-58.2864574 15.2303896 -56.55344814 16.43370391 -54.8125 17.625 C-53.84957031 18.29789063 -52.88664062 18.97078125 -51.89453125 19.6640625 C-49.08540719 21.33827324 -49.08540719 21.33827324 -46.28125 20.25 C-45.5284375 19.8375 -44.775625 19.425 -44 19 C-42.67323492 18.64141484 -41.34164079 18.2981424 -40 18 C-41.65 19.98 -43.3 21.96 -45 24 C-43.75160501 25.105981 -42.50120766 26.20970201 -41.25 27.3125 C-40.55390625 27.92738281 -39.8578125 28.54226562 -39.140625 29.17578125 C-37.14885494 30.87314734 -35.11101085 32.45477809 -33 34 C-33.495 34.99 -33.495 34.99 -34 36 C-34.96421875 35.41089844 -35.9284375 34.82179687 -36.921875 34.21484375 C-38.19752959 33.45507888 -39.47359285 32.69599988 -40.75 31.9375 C-41.38421875 31.54755859 -42.0184375 31.15761719 -42.671875 30.75585938 C-46.11694564 28.58891295 -46.11694564 28.58891295 -50.03393555 28.23754883 C-53.37711016 29.53405129 -55.61023966 32.22251695 -58.0625 34.75 C-58.59166016 35.2759375 -59.12082031 35.801875 -59.66601562 36.34375 C-62.6303896 39.34903755 -64.99079713 42.24578011 -67 46 C-66.319375 46.226875 -65.63875 46.45375 -64.9375 46.6875 C-61.24285987 48.33829665 -57.76736873 49.98247364 -55 53 C-54.5625 56.8125 -54.5625 56.8125 -55 60 C-58.79456635 58.66586802 -61.5261103 56.98796076 -64.625 54.4375 C-67.19848644 52.32513314 -68.81655079 51.06114974 -72 50 C-72.26683594 50.72058594 -72.53367188 51.44117188 -72.80859375 52.18359375 C-74.3856095 55.91155557 -76.50652608 59.18028222 -78.66015625 62.59765625 C-80.22352891 65.15538957 -80.22352891 65.15538957 -81 69 C-76.38 71.97 -71.76 74.94 -67 78 C-66.34 76.68 -65.68 75.36 -65 74 C-63.54143397 72.05161702 -62.0373953 70.13680333 -60.5 68.25 C-59.7059375 67.26515625 -58.911875 66.2803125 -58.09375 65.265625 C-57.4028125 64.51796875 -56.711875 63.7703125 -56 63 C-55.34 63 -54.68 63 -54 63 C-53.21875 65.61328125 -53.21875 65.61328125 -53 69 C-54.43063442 71.33064419 -55.73330346 73.15554145 -57.5 75.1875 C-59.11360802 77.08572401 -60.56021769 78.9553911 -62 81 C-60.87797799 84.36606602 -59.90725979 85.19481269 -57.25 87.4375 C-56.57453125 88.01371094 -55.8990625 88.58992188 -55.203125 89.18359375 C-52.82142783 91.14722706 -50.41570856 93.07841364 -48 95 C-47.25234375 94.26652344 -46.5046875 93.53304687 -45.734375 92.77734375 C-44.74020886 91.83007224 -43.7453825 90.88349329 -42.75 89.9375 C-42.25886719 89.45216797 -41.76773438 88.96683594 -41.26171875 88.46679688 C-39.796875 87.08984375 -39.796875 87.08984375 -37 85 C-34.640625 85.19140625 -34.640625 85.19140625 -33 86 C-33 90.98148186 -34.12244969 91.79760954 -37.5 95.3125 C-42.16173992 99.74508136 -42.16173992 99.74508136 -45.09375 100.63671875 C-53.37737191 100.04260652 -61.00771631 92.99356974 -67 88 C-70.3 93.28 -73.6 98.56 -77 104 C-75.35 105.65 -73.7 107.3 -72 109 C-71 110 -70 111 -69 112 C-65.56404834 110.47291037 -62.88087546 108.40072955 -60 106 C-59.67 107.32 -59.34 108.64 -59 110 C-58.34 110 -57.68 110 -57 110 C-57 110.66 -57 111.32 -57 112 C-58.96147874 113.38938077 -60.96166576 114.7260411 -63 116 C-61.5140084 120.59306496 -59.14985318 123.43569245 -56 127 C-51.78914892 126.38510677 -48.56717651 124.91045424 -44.8125 122.9375 C-39.20705882 120 -39.20705882 120 -37 120 C-37.495 119.21625 -37.99 118.4325 -38.5 117.625 C-40 115 -40 115 -40 113 C-37.69 113 -35.38 113 -33 113 C-32.67 113.66 -32.34 114.32 -32 115 C-27.49380023 113.43225369 -23.81418636 111.06224207 -19.875 108.4375 C-13.39031414 104.13010471 -13.39031414 104.13010471 -10 103 C-11.59299508 107.17542809 -14.68133032 109.72890616 -17.9375 112.625 C-18.47568359 113.11484375 -19.01386719 113.6046875 -19.56835938 114.109375 C-21.9636451 116.27133449 -24.31062484 118.20708323 -27 120 C-26.71125 120.70125 -26.4225 121.4025 -26.125 122.125 C-24.97861041 125.05466229 -23.98472755 128.01271727 -23 131 C-22.18015625 130.65066406 -21.3603125 130.30132812 -20.515625 129.94140625 C-19.43796875 129.48636719 -18.3603125 129.03132812 -17.25 128.5625 C-15.64898437 127.88380859 -15.64898437 127.88380859 -14.015625 127.19140625 C-11.6586159 126.26020447 -9.47007165 125.5215928 -7 125 C-10.38872633 128.58806317 -13.76141332 131.45684799 -18 134 C-18.66 134 -19.32 134 -20 134 C-19.01 136.31 -18.02 138.62 -17 141 C-16.15695313 140.57847656 -15.31390625 140.15695313 -14.4453125 139.72265625 C-10.63020833 137.81510417 -6.81510417 135.90755208 -3 134 C-4.52763464 138.08596252 -7.11084191 139.79826179 -10.625 142.25 C-11.62789063 142.95640625 -12.63078125 143.6628125 -13.6640625 144.390625 C-14.82035156 145.18726563 -14.82035156 145.18726563 -16 146 C-15.505 149.465 -15.505 149.465 -15 153 C3.08604871 147.00345293 19.00202483 139.37240569 31 124 C31 130.07195211 24.17408915 134.81707309 20.078125 138.9296875 C3.97896656 153.85924896 -17.43253374 160.81182935 -39.140625 160.28515625 C-50.79615595 159.42396823 -61.46688406 157.23680341 -72 152 C-72.93328125 151.54625 -73.8665625 151.0925 -74.828125 150.625 C-81.55300351 147.16863786 -87.32043179 142.97556813 -93 138 C-94.01513672 137.12794922 -94.01513672 137.12794922 -95.05078125 136.23828125 C-110.63906095 121.83708497 -119.05700305 100.8939421 -120.16015625 79.9609375 C-120.75065172 57.21402501 -113.01396793 36.13831521 -98 19 C-97.41863281 18.32324219 -96.83726563 17.64648438 -96.23828125 16.94921875 C-72.34252891 -8.91624854 -31.22757354 -15.52557328 0 0 Z M-41.875 -3 C-42.56335938 -2.90460937 -43.25171875 -2.80921875 -43.9609375 -2.7109375 C-45.6411316 -2.47757721 -47.32064128 -2.23929794 -49 -2 C-45.70188577 0.19874282 -43.91647183 0.69030332 -40 1 C-36.76011648 0.28004849 -36.76011648 0.28004849 -33.625 -0.9375 C-32.03558594 -1.50791016 -32.03558594 -1.50791016 -30.4140625 -2.08984375 C-29.61742188 -2.39019531 -28.82078125 -2.69054687 -28 -3 C-28 -3.33 -28 -3.66 -28 -4 C-32.70468175 -4.11725064 -37.22782102 -3.6664559 -41.875 -3 Z M-67.4375 4.9375 C-68.53481445 5.51661133 -68.53481445 5.51661133 -69.65429688 6.10742188 C-71.44488672 7.05538121 -73.22371684 8.02549651 -75 9 C-74.06514877 11.42357868 -74.06514877 11.42357868 -70.5 12.3984375 C-65.06115743 13.63917346 -61.58603025 11.37502854 -57 8.625 C-56.22527344 8.18671875 -55.45054688 7.7484375 -54.65234375 7.296875 C-52.7556638 6.21974811 -50.87597577 5.11279472 -49 4 C-55.90048774 -0.60032516 -60.80297164 1.26513984 -67.4375 4.9375 Z M-87.48046875 19.47265625 C-93.34153192 24.92197123 -93.34153192 24.92197123 -96 32 C-93.69 32.66 -91.38 33.32 -89 34 C-88.57589844 33.50371094 -88.15179688 33.00742187 -87.71484375 32.49609375 C-77.50372578 20.66915052 -77.50372578 20.66915052 -72 17 C-72 16.34 -72 15.68 -72 15 C-79.637733 11.69719654 -81.70202879 14.11723532 -87.48046875 19.47265625 Z M-77 27 C-77.73089844 27.67675781 -78.46179688 28.35351562 -79.21484375 29.05078125 C-79.84519531 29.65277344 -80.47554687 30.25476563 -81.125 30.875 C-81.96417969 31.67550781 -81.96417969 31.67550781 -82.8203125 32.4921875 C-84.30809911 34.07471871 -84.30809911 34.07471871 -84 37 C-82.42466914 37.86883706 -80.83935491 38.71959068 -79.25 39.5625 C-78.36828125 40.03816406 -77.4865625 40.51382813 -76.578125 41.00390625 C-74.12694322 42.1621106 -74.12694322 42.1621106 -71.8671875 41.84375 C-69.65935626 40.84606894 -68.50082532 39.73080984 -66.875 37.9375 C-63.21434565 34.07746361 -59.17410878 30.91001694 -54.94140625 27.69921875 C-54.30074219 27.13847656 -53.66007812 26.57773437 -53 26 C-53 25.34 -53 24.68 -53 24 C-54.95585325 22.99515796 -56.91476237 21.99626195 -58.875 21 C-59.96554688 20.443125 -61.05609375 19.88625 -62.1796875 19.3125 C-68.70916034 16.27385336 -72.39814113 22.68618595 -77 27 Z M-98 33 C-102.859467 39.94209571 -108 49.32321179 -108 58 C-106.02 58.33 -104.04 58.66 -102 59 C-101.52949219 57.90300781 -101.05898437 56.80601563 -100.57421875 55.67578125 C-99.94549652 54.22127461 -99.31658 52.76685194 -98.6875 51.3125 C-98.37876953 50.59126953 -98.07003906 49.87003906 -97.75195312 49.12695312 C-96.06087018 45.22856192 -94.19731269 41.64415858 -92 38 C-92 37.34 -92 36.68 -92 36 C-93.98 35.01 -95.96 34.02 -98 33 Z M-88 40 C-92.83515453 46.14467555 -97 54.11649535 -97 62 C-92.05 63.98 -92.05 63.98 -87 66 C-86.46890625 65.05898437 -85.9378125 64.11796875 -85.390625 63.1484375 C-84.67720096 61.89055828 -83.96365265 60.63274953 -83.25 59.375 C-82.90195313 58.75753906 -82.55390625 58.14007813 -82.1953125 57.50390625 C-79.94881649 53.55173734 -77.56432686 49.75408212 -75 46 C-76.59910868 44.99193149 -78.20448262 43.99379615 -79.8125 43 C-80.70582031 42.443125 -81.59914063 41.88625 -82.51953125 41.3125 C-84.97422623 39.76615208 -84.97422623 39.76615208 -88 40 Z M-109 61 C-110.01973129 64.05919388 -110.11533602 66.12418025 -110.09765625 69.32421875 C-110.09443359 70.35224609 -110.09121094 71.38027344 -110.08789062 72.43945312 C-110.07951172 73.51130859 -110.07113281 74.58316406 -110.0625 75.6875 C-110.05798828 76.77095703 -110.05347656 77.85441406 -110.04882812 78.97070312 C-110.03703743 81.64719085 -110.02058063 84.32356777 -110 87 C-108.02 87.99 -108.02 87.99 -106 89 C-105.01 80.09 -104.02 71.18 -103 62 C-105.97 61.505 -105.97 61.505 -109 61 Z M-99 65 C-101.33447255 73.67089803 -101.19865739 82.10456358 -101 91 C-98.525 91.99 -98.525 91.99 -96 93 C-94.31791974 88.07952223 -92.82995587 83.115837 -91.375 78.125 C-91.14554688 77.34125 -90.91609375 76.5575 -90.6796875 75.75 C-90.11879701 73.83362417 -89.55925982 71.91685235 -89 70 C-90.28813342 69.16121545 -91.58063256 68.32913217 -92.875 67.5 C-93.59429687 67.0359375 -94.31359375 66.571875 -95.0546875 66.09375 C-96.91860466 64.83663499 -96.91860466 64.83663499 -99 65 Z M-85 73 C-89.09189252 84.24564228 -89.09189252 84.24564228 -91 96 C-89.90241493 96.84198307 -88.79664683 97.67330671 -87.6875 98.5 C-86.76517578 99.19609375 -86.76517578 99.19609375 -85.82421875 99.90625 C-83.92566995 101.25711283 -83.92566995 101.25711283 -81 101 C-79.68200981 98.58618654 -78.37049082 96.16922404 -77.0625 93.75 C-76.68931641 93.06808594 -76.31613281 92.38617188 -75.93164062 91.68359375 C-75.57392578 91.01972656 -75.21621094 90.35585937 -74.84765625 89.671875 C-74.51773682 89.0644043 -74.18781738 88.45693359 -73.84790039 87.83105469 C-72.95802309 85.90935018 -72.44858489 84.06548422 -72 82 C-73.97702566 80.49710267 -75.9564583 78.99758658 -77.9375 77.5 C-78.50146484 77.07074219 -79.06542969 76.64148438 -79.64648438 76.19921875 C-82.07552033 73.97912851 -82.07552033 73.97912851 -85 73 Z M-109 91 C-108.54857225 92.77260631 -108.08859477 94.5430368 -107.625 96.3125 C-107.36976562 97.29863281 -107.11453125 98.28476563 -106.8515625 99.30078125 C-106.08086826 102.1805816 -106.08086826 102.1805816 -104 105 C-104.33 100.71 -104.66 96.42 -105 92 C-106.32 91.67 -107.64 91.34 -109 91 Z M-101 95 C-100.63771166 105.71180835 -100.63771166 105.71180835 -98 116 C-97.34 116.33 -96.68 116.66 -96 117 C-96 110.4 -96 103.8 -96 97 C-98.475 96.01 -98.475 96.01 -101 95 Z M-92 101 C-93.2039337 104.75399798 -93.09877617 108.33217412 -93.0625 112.25 C-93.05347656 113.51328125 -93.04445313 114.7765625 -93.03515625 116.078125 C-93.02355469 117.04234375 -93.01195313 118.0065625 -93 119 C-91.68 119.33 -90.36 119.66 -89 120 C-87.35 115.38 -85.7 110.76 -84 106 C-84.94875 105.175 -85.8975 104.35 -86.875 103.5 C-87.40867187 103.0359375 -87.94234375 102.571875 -88.4921875 102.09375 C-89.95936421 100.80427542 -89.95936421 100.80427542 -92 101 Z M-104 105 C-103 107 -103 107 -103 107 Z M-81 110 C-82.00508801 111.78881736 -83.00392736 113.58114696 -84 115.375 C-84.556875 116.37273437 -85.11375 117.37046875 -85.6875 118.3984375 C-87.15014268 120.81195509 -87.15014268 120.81195509 -87 123 C-84.525 124.485 -84.525 124.485 -82 126 C-79.03 123.36 -76.06 120.72 -73 118 C-74.78601804 114.42796392 -76.06686817 112.56649035 -79 110 C-79.66 110 -80.32 110 -81 110 Z M-75.6875 124 C-76.89986328 124.8353125 -76.89986328 124.8353125 -78.13671875 125.6875 C-78.75160156 126.120625 -79.36648437 126.55375 -80 127 C-78.60240095 130.54518884 -78.60240095 130.54518884 -77 134 C-71.13190493 133.47606294 -66.45126259 132.23891142 -61 130 C-62.5577308 126.17647894 -64.91595258 123.70794407 -68 121 C-71.63195496 121 -72.74713911 121.95453155 -75.6875 124 Z M-37.625 125.71484375 C-38.68460938 126.24948242 -38.68460938 126.24948242 -39.765625 126.79492188 C-40.50296875 127.17197266 -41.2403125 127.54902344 -42 127.9375 C-42.73734375 128.31068359 -43.4746875 128.68386719 -44.234375 129.06835938 C-45.60247224 129.76114584 -46.9697444 130.45556565 -48.3359375 131.15209961 C-49.55473039 131.77311893 -50.77652263 132.38826131 -52 133 C-51.67 134.65 -51.34 136.3 -51 138 C-47.78711549 139.04326291 -45.73854778 138.92826111 -42.48828125 138.07421875 C-41.22854492 137.74454102 -41.22854492 137.74454102 -39.94335938 137.40820312 C-39.07517578 137.17037109 -38.20699219 136.93253906 -37.3125 136.6875 C-36.43271484 136.46126953 -35.55292969 136.23503906 -34.64648438 136.00195312 C-31.28280608 135.12472298 -31.28280608 135.12472298 -28 134 C-27.67 133.34 -27.34 132.68 -27 132 C-27.91807007 129.96884941 -27.91807007 129.96884941 -29.3125 127.875 C-29.76238281 127.15054688 -30.21226563 126.42609375 -30.67578125 125.6796875 C-31.33126953 124.84824219 -31.33126953 124.84824219 -32 124 C-34.38029735 124 -35.50979896 124.64012569 -37.625 125.71484375 Z M-92 125 C-91 127 -91 127 -91 127 Z M-89 127 C-89 127.99 -89 128.98 -89 130 C-88.01 130 -87.02 130 -86 130 C-86.99 129.01 -87.98 128.02 -89 127 Z M-86 131 C-85.34 132.32 -84.68 133.64 -84 135 C-83.34 135 -82.68 135 -82 135 C-82.66 133.68 -83.32 132.36 -84 131 C-84.66 131 -85.32 131 -86 131 Z M-66.6875 136.5 C-67.38939453 136.64308594 -68.09128906 136.78617188 -68.81445312 136.93359375 C-70.54350175 137.28646082 -72.27182353 137.64288604 -74 138 C-74 138.66 -74 139.32 -74 140 C-67.4 140 -60.8 140 -54 140 C-54.66 138.35 -55.32 136.7 -56 135 C-59.68084338 135 -63.10167365 135.75671947 -66.6875 136.5 Z M-33.1875 139.375 C-38.09419445 141.05450537 -43.0019651 142.6127374 -48 144 C-47.67 144.99 -47.34 145.98 -47 147 C-38.28296246 147.48032656 -30.45295786 146.07313419 -22 144 C-22.65585189 140.39007621 -22.65585189 140.39007621 -24 137 C-27.23166581 137 -30.15883618 138.3332567 -33.1875 139.375 Z M-59.625 144.5 C-61.40777344 144.63921875 -61.40777344 144.63921875 -63.2265625 144.78125 C-64.59941406 144.88953125 -64.59941406 144.88953125 -66 145 C-66 145.33 -66 145.66 -66 146 C-60.63904667 147.12862175 -55.44693314 147.09688221 -50 147 C-50.33 146.01 -50.66 145.02 -51 144 C-53.888609 144 -56.74559416 144.27416425 -59.625 144.5 Z M-29.6875 148.875 C-35.13201403 150.36594341 -40.37965079 151.40705631 -46 152 C-42.39480691 155.60519309 -36.47310576 155.05607922 -31.5625 155.125 C-26.99320919 155.07723738 -22.53082513 154.57534287 -18 154 C-18.33 152.02 -18.66 150.04 -19 148 C-22.96138746 146.67953751 -25.8042008 147.79808874 -29.6875 148.875 Z " fill="#FFFFFF" transform="translate(120,8)"/>
<path d="M0 0 C14.19 0 28.38 0 43 0 C44 3 44 3 43 8 C31.78 8 20.56 8 9 8 C9 11.96 9 15.92 9 20 C8.67 23.3 8.34 26.6 8 30 C17.9 30 27.8 30 38 30 C38 32.31 38 34.62 38 37 C27.77 37 17.54 37 7 37 C6.67 44.26 6.34 51.52 6 59 C22.335 59.495 22.335 59.495 39 60 C39 62.31 39 64.62 39 67 C38 68 38 68 36.24729919 68.12025452 C35.10479454 68.1169236 35.10479454 68.1169236 33.93920898 68.11352539 C33.07839218 68.11344986 32.21757538 68.11337433 31.33067322 68.11329651 C30.39526199 68.10813522 29.45985077 68.10297394 28.49609375 68.09765625 C27.54307877 68.0962413 26.59006378 68.09482635 25.60816956 68.09336853 C22.55124835 68.08775152 19.49439923 68.07519616 16.4375 68.0625 C14.37044376 68.05748719 12.30338638 68.05292391 10.23632812 68.04882812 C5.15752412 68.03777656 0.0787743 68.02050055 -5 68 C-4.28629084 53.26589734 -3.13819687 38.57642106 -1.9375 23.875 C-1.74914259 21.54819378 -1.56099021 19.22137095 -1.37304688 16.89453125 C-0.91809861 11.26279275 -0.45896698 5.63141809 0 0 Z " fill="#FFFFFF" transform="translate(346,50)"/>
<path d="M0 0 C14.19 0 28.38 0 43 0 C43 2.64 43 5.28 43 8 C31.78 8 20.56 8 9 8 C9 11.3 9 14.6 9 18 C8.67 21.96 8.34 25.92 8 30 C17.9 30 27.8 30 38 30 C37.67 32.31 37.34 34.62 37 37 C27.1 37 17.2 37 7 37 C6.71123136 43.44669454 6.71123136 43.44669454 6.43188477 49.89379883 C6.39377686 50.69841553 6.35566895 51.50303223 6.31640625 52.33203125 C6.26141968 53.56530151 6.26141968 53.56530151 6.20532227 54.82348633 C6 57 6 57 5 60 C16.22 60 27.44 60 39 60 C39 66 39 66 38 68 C23.81 68 9.62 68 -5 68 C-5 61.7928926 -4.93843393 55.85072688 -4.37890625 49.7109375 C-4.31468979 48.96397614 -4.25047333 48.21701477 -4.18431091 47.44741821 C-3.98105181 45.08957572 -3.77218171 42.73227922 -3.5625 40.375 C-3.29041532 37.27886399 -3.02118084 34.18249231 -2.75390625 31.0859375 C-2.68805328 30.32859314 -2.62220032 29.57124878 -2.55435181 28.79095459 C-2.00466557 22.34635134 -1.60834022 15.89838745 -1.26147461 9.43994141 C-1.02086167 6.2744546 -0.52190403 3.1314242 0 0 Z " fill="#FFFFFF" transform="translate(129,50)"/>
<path d="M0 0 C0.495 3.96 0.495 3.96 1 8 C0.0925 7.835 -0.815 7.67 -1.75 7.5 C-5.20764012 7.02016423 -8.63566508 6.83615642 -12.125 6.75 C-13.11757812 6.72421875 -14.11015625 6.6984375 -15.1328125 6.671875 C-18.49312186 7.05643356 -20.29581622 7.99759402 -23 10 C-25.23455541 12.77202718 -25.23455541 12.77202718 -25.0625 15.6875 C-22.48949223 23.70923012 -15.01236444 28.89670304 -8.62011719 33.9675293 C-4.38880862 37.39423086 -0.94064101 40.96219216 0.71484375 46.30859375 C1.27632951 51.67718565 0.87672483 55.2354245 -2 60 C-7.54987976 66.50985897 -13.54579892 67.62881658 -21.75 68.3125 C-27.61689103 68.18132967 -33.3466908 66.4477987 -39 65 C-39.33 62.03 -39.66 59.06 -40 56 C-39.34515625 56.2165625 -38.6903125 56.433125 -38.015625 56.65625 C-30.51493728 58.9445954 -21.6558523 61.28123422 -14.2734375 57.6640625 C-11.77555998 56.03576836 -11.77555998 56.03576836 -10 53 C-10.07506555 48.7162594 -10.56501403 46.55653741 -13.22265625 43.15625 C-14.15980469 42.2796875 -15.09695312 41.403125 -16.0625 40.5 C-16.55693604 40.02933105 -17.05137207 39.55866211 -17.56079102 39.07373047 C-21.06099837 35.76882823 -24.69664814 32.62021018 -28.34765625 29.484375 C-31.98192698 26.2195455 -34.80694339 22.77222644 -36 18 C-36.09955529 12.03774457 -35.10090904 7.5215151 -31 3 C-21.21425124 -3.38735065 -10.92670655 -2.89312325 0 0 Z " fill="#FFFFFF" transform="translate(103,51)"/>
<path d="M0 0 C0.495 3.96 0.495 3.96 1 8 C0.0925 7.835 -0.815 7.67 -1.75 7.5 C-5.20764012 7.02016423 -8.63566508 6.83615642 -12.125 6.75 C-13.11757813 6.72421875 -14.11015625 6.6984375 -15.1328125 6.671875 C-18.49312186 7.05643356 -20.29581622 7.99759402 -23 10 C-25.23455541 12.77202718 -25.23455541 12.77202718 -25.0625 15.6875 C-23.07210802 21.89283969 -18.47841572 25.81161603 -13.5625 29.8984375 C-12.94721436 30.41067871 -12.33192871 30.92291992 -11.69799805 31.45068359 C-10.46915096 32.46042898 -9.22879678 33.45637942 -7.97583008 34.43603516 C-2.61415141 38.79790321 0.51311451 43.59180155 1.5 50.5 C0.667104 56.33027198 -1.25208275 60.45532895 -5.6875 64.375 C-16.94733783 69.89869403 -27.28549618 68.00005586 -39 65 C-39 62.03 -39 59.06 -39 56 C-38.41734375 56.2165625 -37.8346875 56.433125 -37.234375 56.65625 C-28.68329464 59.5603905 -19.49827744 60.7770122 -11 57 C-10.07377793 52.46956596 -9.46428719 49.16459307 -11.4375 44.875 C-14.69468523 41.22059706 -18.25681562 38.14376474 -22 35 C-23.77948353 33.46832603 -25.55016256 31.9263715 -27.3125 30.375 C-28.13363281 29.66085938 -28.95476562 28.94671875 -29.80078125 28.2109375 C-33.70288552 24.28804049 -35.57239406 20.62470351 -36.0546875 15.046875 C-35.93920344 10.72447149 -34.32892512 7.52528345 -31.51953125 4.30078125 C-22.64529675 -4.0860811 -11.04819201 -2.92528961 0 0 Z " fill="#FFFFFF" transform="translate(320,51)"/>
<path d="M0 0 C3.3 0 6.6 0 10 0 C10.08794385 7.65936009 9.78258875 15.16420508 9.125 22.79296875 C9.03621582 23.86501053 8.94743164 24.93705231 8.85595703 26.0415802 C8.57487087 29.42392295 8.28754579 32.80570093 8 36.1875 C7.80687676 38.49801223 7.61416459 40.80855886 7.421875 43.11914062 C6.95342639 48.74658144 6.47652177 54.37321392 6 60 C16.23 60 26.46 60 37 60 C37 62.64 37 65.28 37 68 C23.14 68 9.28 68 -5 68 C-3.84512669 47.21228049 -3.84512669 47.21228049 -3.28125 39.3359375 C-3.18704773 38.00425034 -3.18704773 38.00425034 -3.09094238 36.6456604 C-2.96059091 34.80945864 -2.82953453 32.97330678 -2.69775391 31.13720703 C-2.49770566 28.34295286 -2.30149991 25.5484448 -2.10546875 22.75390625 C-1.9767925 20.94790026 -1.84789449 19.14191006 -1.71875 17.3359375 C-1.661427 16.51499603 -1.604104 15.69405457 -1.54504395 14.84823608 C-1.1839223 9.87179272 -0.65881788 4.94608227 0 0 Z " fill="#FFFFFF" transform="translate(195,50)"/>
<path d="M0 0 C3.3 0 6.6 0 10 0 C9.32067357 13.47364043 8.54563673 26.93996806 7.69775391 40.40405273 C7.56401971 42.54000244 7.43223681 44.67607507 7.30224609 46.81225586 C7.11192155 49.93891501 6.91600457 53.06517761 6.71875 56.19140625 C6.661427 57.14954727 6.604104 58.10768829 6.54504395 59.09486389 C6.48828491 59.97436203 6.43152588 60.85386017 6.37304688 61.76000977 C6.32498901 62.5332106 6.27693115 63.30641144 6.22741699 64.1030426 C6 66 6 66 5 68 C1.7 68 -1.6 68 -5 68 C-4.33273345 54.68606972 -3.55690102 41.3810481 -2.69775391 28.078125 C-2.56408513 25.99751277 -2.43229868 23.91677889 -2.30224609 21.8359375 C-2.11163725 18.78619602 -1.91582755 15.73682945 -1.71875 12.6875 C-1.661427 11.75639404 -1.604104 10.82528809 -1.54504395 9.8659668 C-1.4599054 8.57686401 -1.4599054 8.57686401 -1.37304688 7.26171875 C-1.32498901 6.50850342 -1.27693115 5.75528809 -1.22741699 4.97924805 C-1 3 -1 3 0 0 Z " fill="#FFFFFF" transform="translate(254,50)"/>
<path d="M0 0 C0.80937012 0.09788818 1.61874023 0.19577637 2.45263672 0.29663086 C3.06896973 0.37534424 3.68530273 0.45405762 4.3203125 0.53515625 C4.23943075 3.64038979 4.1265936 6.74365958 4.0078125 9.84765625 C3.98525391 10.72873047 3.96269531 11.60980469 3.93945312 12.51757812 C3.90400391 13.36513672 3.86855469 14.21269531 3.83203125 15.0859375 C3.80584717 15.86622314 3.77966309 16.64650879 3.75268555 17.45043945 C3.21556487 20.04020425 2.39729424 20.93579722 0.3203125 22.53515625 C-3.67337922 23.57698887 -6.69918447 23.58881882 -10.6796875 22.53515625 C-10.6796875 21.54515625 -10.6796875 20.55515625 -10.6796875 19.53515625 C-7.3796875 19.53515625 -4.0796875 19.53515625 -0.6796875 19.53515625 C-0.6796875 18.21515625 -0.6796875 16.89515625 -0.6796875 15.53515625 C-1.7521875 15.76203125 -2.8246875 15.98890625 -3.9296875 16.22265625 C-7.6796875 16.53515625 -7.6796875 16.53515625 -10.0546875 15.47265625 C-12.31087123 12.78259104 -12.61103751 11.03630557 -12.6796875 7.53515625 C-11.4877254 4.09171018 -10.59360106 2.1533919 -7.5546875 0.09765625 C-4.72522721 -0.45593381 -2.83171414 -0.35076387 0 0 Z M-6.9921875 4.22265625 C-8.87272292 6.41982386 -8.87272292 6.41982386 -9.0546875 9.16015625 C-8.88953001 11.71742821 -8.88953001 11.71742821 -6.6796875 13.53515625 C-4.14017206 13.44403687 -4.14017206 13.44403687 -1.6796875 12.53515625 C0.7497641 8.89097885 0.48210825 6.82274353 0.3203125 2.53515625 C-2.95003209 2.17178463 -4.28852503 2.24971337 -6.9921875 4.22265625 Z " fill="#FFFFFF" transform="translate(202.6796875,128.46484375)"/>
<path d="M0 0 C1.0725 -0.185625 2.145 -0.37125 3.25 -0.5625 C6 -1 6 -1 9 1 C9.29296875 4.2578125 9.29296875 4.2578125 9.1875 8.125 C9.16042969 9.40632812 9.13335937 10.68765625 9.10546875 12.0078125 C9.07066406 12.99523437 9.03585937 13.98265625 9 15 C7.68 15 6.36 15 5 15 C5 11.37 5 7.74 5 4 C3.68 4 2.36 4 1 4 C-0.14814997 6.29629994 -0.30769809 8.07698086 -0.5625 10.625 C-0.64628906 11.44226563 -0.73007812 12.25953125 -0.81640625 13.1015625 C-0.87699219 13.72804687 -0.93757813 14.35453125 -1 15 C-1.99 15 -2.98 15 -4 15 C-4.33 11.04 -4.66 7.08 -5 3 C-6.32 3.33 -7.64 3.66 -9 4 C-9.66 7.63 -10.32 11.26 -11 15 C-11.99 15 -12.98 15 -14 15 C-14.02715383 13.25008666 -14.04646551 11.50005055 -14.0625 9.75 C-14.07410156 8.77546875 -14.08570313 7.8009375 -14.09765625 6.796875 C-14.01195577 4.34241322 -13.70706066 2.33831086 -13 0 C-8.32572863 -1.02605957 -4.70260801 -0.67180114 0 0 Z " fill="#FFFFFF" transform="translate(357,129)"/>
<path d="M0 0 C1.4540625 0.0309375 1.4540625 0.0309375 2.9375 0.0625 C2.9375 1.0525 2.9375 2.0425 2.9375 3.0625 C1.2875 3.0625 -0.3625 3.0625 -2.0625 3.0625 C-2.0625 4.0525 -2.0625 5.0425 -2.0625 6.0625 C-0.7425 6.0625 0.5775 6.0625 1.9375 6.0625 C1.9375 6.7225 1.9375 7.3825 1.9375 8.0625 C0.6175 8.0625 -0.7025 8.0625 -2.0625 8.0625 C-2.0625 12.3525 -2.0625 16.6425 -2.0625 21.0625 C-3.3825 21.0625 -4.7025 21.0625 -6.0625 21.0625 C-5.7325 16.7725 -5.4025 12.4825 -5.0625 8.0625 C-7.0425 8.0625 -9.0225 8.0625 -11.0625 8.0625 C-11.0625 11.3625 -11.0625 14.6625 -11.0625 18.0625 C-10.0725 18.3925 -9.0825 18.7225 -8.0625 19.0625 C-8.0625 20.0525 -8.0625 21.0425 -8.0625 22.0625 C-10.3725 21.7325 -12.6825 21.4025 -15.0625 21.0625 C-15.0625 16.7725 -15.0625 12.4825 -15.0625 8.0625 C-15.7225 8.0625 -16.3825 8.0625 -17.0625 8.0625 C-17.0625 7.4025 -17.0625 6.7425 -17.0625 6.0625 C-16.0725 6.0625 -15.0825 6.0625 -14.0625 6.0625 C-14.0625 5.0725 -14.0625 4.0825 -14.0625 3.0625 C-13.0725 3.0625 -12.0825 3.0625 -11.0625 3.0625 C-11.0625 4.0525 -11.0625 5.0425 -11.0625 6.0625 C-9.0825 6.0625 -7.1025 6.0625 -5.0625 6.0625 C-4.918125 5.258125 -4.77375 4.45375 -4.625 3.625 C-3.8465 0.0785 -3.8465 0.0785 0 0 Z " fill="#FFFFFF" transform="translate(312.0625,122.9375)"/>
<path d="M0 0 C2.1185958 1.60126427 2.89170664 2.50997254 3.46875 5.12109375 C3.55234657 11.31768953 3.55234657 11.31768953 0.875 14.625 C-2.60210817 16.28796478 -4.34257632 16.02067638 -8 15 C-8.33 17.31 -8.66 19.62 -9 22 C-10.32 22 -11.64 22 -13 22 C-12.67 14.74 -12.34 7.48 -12 0 C-7.2774166 -0.94451668 -4.61516651 -1.02559256 0 0 Z M-7 2 C-9.30746414 3.87773264 -9.30746414 3.87773264 -9.25 6.9375 C-9.23517754 10.17282787 -9.23517754 10.17282787 -7 13 C-5.02 12.67 -3.04 12.34 -1 12 C0.18845297 7.36976382 0.18845297 7.36976382 -1.1875 3.0625 C-3.22497081 1.66285367 -3.22497081 1.66285367 -7 2 Z " fill="#FFFFFF" transform="translate(268,129)"/>
<path d="M0 0 C1.32 0 2.64 0 4 0 C3.67 6.6 3.34 13.2 3 20 C-7.18483412 21.4549763 -7.18483412 21.4549763 -10.6875 19.5 C-12.50202542 16.04376111 -12.54114062 13.85562691 -12 10 C-10.5 7.125 -10.5 7.125 -8 5 C-5.26604588 4.29564159 -2.84729307 4.14236465 0 4 C0 2.68 0 1.36 0 0 Z M-7.375 8.625 C-9.34355919 10.97015546 -9.34355919 10.97015546 -8.75 14.25 C-8.5025 15.1575 -8.255 16.065 -8 17 C-6.35 17.33 -4.7 17.66 -3 18 C-0.39665076 15.28817788 -0.00543309 14.10866187 0.1875 10.25 C0.125625 9.1775 0.06375 8.105 0 7 C-3.24915145 6.63898317 -4.6352257 6.75041758 -7.375 8.625 Z " fill="#FFFFFF" transform="translate(178,124)"/>
<path d="M0 0 C0.66 0.66 1.32 1.32 2 2 C1.9765625 5.0390625 1.9765625 5.0390625 1.625 8.625 C1.45871094 10.40777344 1.45871094 10.40777344 1.2890625 12.2265625 C1.19367188 13.14179688 1.09828125 14.05703125 1 15 C0.01 15 -0.98 15 -2 15 C-2 12.69 -2 10.38 -2 8 C-4.99152582 8.77479736 -4.99152582 8.77479736 -8 10 C-8.33 10.99 -8.66 11.98 -9 13 C-7.02 13 -5.04 13 -3 13 C-3.33 13.99 -3.66 14.98 -4 16 C-10.75 15.25 -10.75 15.25 -13 13 C-13.125 10.5625 -13.125 10.5625 -12 8 C-8.89519363 6.2743527 -5.57423761 5 -2 5 C-2 4.01 -2 3.02 -2 2 C-6.455 2.495 -6.455 2.495 -11 3 C-10.67 2.01 -10.34 1.02 -10 0 C-6.25976024 -1.24674659 -3.83399823 -0.76679965 0 0 Z " fill="#FFFFFF" transform="translate(237,129)"/>
<path d="M0 0 C1.875 1.0625 1.875 1.0625 3 3 C3.63365562 7.91083105 3.72186782 9.89463989 1 14.0625 C-2.51260189 16.33105539 -4.18363391 16.52134695 -8.19140625 15.703125 C-10 15 -10 15 -12.0625 12.875 C-13.27674865 9.15130413 -12.97798899 6.77224325 -12 3 C-8.76099633 -1.41682319 -5.00494753 -1.25123688 0 0 Z M-9 4 C-9.41666667 7.5 -9.41666667 7.5 -9 11 C-8.34 11.66 -7.68 12.32 -7 13 C-3.90073181 12.67801034 -3.90073181 12.67801034 -1 12 C0.206587 7.34882582 0.206587 7.34882582 -1.25 3.0625 C-4.53029992 1.07088933 -5.92244738 1.94829826 -9 4 Z " fill="#FFFFFF" transform="translate(327,129)"/>
<path d="M0 0 C1 1 1 1 1.09765625 4.16015625 C1.08605469 5.44792969 1.07445312 6.73570312 1.0625 8.0625 C1.05347656 9.35285156 1.04445313 10.64320313 1.03515625 11.97265625 C1.02355469 12.97167969 1.01195312 13.97070312 1 15 C0.01 15 -0.98 15 -2 15 C-2 12.69 -2 10.38 -2 8 C-5.465 9.485 -5.465 9.485 -9 11 C-9 11.33 -9 11.66 -9 12 C-6.03 12.495 -6.03 12.495 -3 13 C-3.33 13.99 -3.66 14.98 -4 16 C-9.625 16.25 -9.625 16.25 -13 14 C-13.5 11.5625 -13.5 11.5625 -13 9 C-9.59420689 6.1952292 -6.32189851 5.50254634 -2 5 C-2.33 4.34 -2.66 3.68 -3 3 C-5.64 3 -8.28 3 -11 3 C-11 2.01 -11 1.02 -11 0 C-7.17998192 -1.37520651 -3.92473073 -0.74051523 0 0 Z " fill="#FFFFFF" transform="translate(292,129)"/>
<path d="M0 0 C-0.33 0.99 -0.66 1.98 -1 3 C-3.0625 3.6875 -3.0625 3.6875 -5 4 C-4.175 4.721875 -3.35 5.44375 -2.5 6.1875 C0 9 0 9 0.5 11.6875 C0 14 0 14 -3 16 C-6.6875 15.625 -6.6875 15.625 -10 15 C-9.67 14.01 -9.34 13.02 -9 12 C-7.35 12 -5.7 12 -4 12 C-4 11.34 -4 10.68 -4 10 C-4.825 9.401875 -5.65 8.80375 -6.5 8.1875 C-9 6 -9 6 -9.3125 3.25 C-9.209375 2.5075 -9.10625 1.765 -9 1 C-5.64919071 -1.10976881 -3.77897651 -1.0497157 0 0 Z " fill="#FFFFFF" transform="translate(378,129)"/>
<path d="M0 0 C0.99 0 1.98 0 3 0 C3 0.99 3 1.98 3 3 C4.32 3 5.64 3 7 3 C7 3.66 7 4.32 7 5 C5.68 5 4.36 5 3 5 C3 8.63 3 12.26 3 16 C4.32 16 5.64 16 7 16 C6.67 16.99 6.34 17.98 6 19 C4.02 18.67 2.04 18.34 0 18 C-0.96661363 14.87819599 -0.98988909 12.47916205 -0.5625 9.25 C-0.46066406 8.45078125 -0.35882813 7.6515625 -0.25390625 6.828125 C-0.17011719 6.22484375 -0.08632812 5.6215625 0 5 C-0.66 5 -1.32 5 -2 5 C-2 4.34 -2 3.68 -2 3 C-1.34 3 -0.68 3 0 3 C0 2.01 0 1.02 0 0 Z " fill="#FFFFFF" transform="translate(217,126)"/>
<path d="M0 0 C1.32 0 2.64 0 4 0 C3.67 6.6 3.34 13.2 3 20 C1.68 19.67 0.36 19.34 -1 19 C-0.67 12.73 -0.34 6.46 0 0 Z " fill="#FFFFFF" transform="translate(274,124)"/>
<path d="M0 0 C1.32 0 2.64 0 4 0 C3.67 6.6 3.34 13.2 3 20 C1.68 19.67 0.36 19.34 -1 19 C-0.67 12.73 -0.34 6.46 0 0 Z " fill="#FFFFFF" transform="translate(242,124)"/>
<path d="M0 0 C0 0.66 0 1.32 0 2 C-1.65 2.33 -3.3 2.66 -5 3 C-5.33 6.96 -5.66 10.92 -6 15 C-7.32 15 -8.64 15 -10 15 C-9.67 10.05 -9.34 5.1 -9 0 C-3 -1 -3 -1 0 0 Z " fill="#FFFFFF" transform="translate(342,129)"/>
<path d="M0 0 C0.99 0 1.98 0 3 0 C3 4.95 3 9.9 3 15 C1.68 15 0.36 15 -1 15 C-1.09038099 9.84828377 -0.84681133 5.08086796 0 0 Z " fill="#FFFFFF" transform="translate(210,129)"/>
<path d="M0 0 C0.99 0 1.98 0 3 0 C3 4.95 3 9.9 3 15 C1.68 15 0.36 15 -1 15 C-0.67 10.05 -0.34 5.1 0 0 Z " fill="#FFFFFF" transform="translate(185,129)"/>
<path d="M0 0 C1.32 0.33 2.64 0.66 4 1 C4 1.66 4 2.32 4 3 C2.68 3 1.36 3 0 3 C0 2.01 0 1.02 0 0 Z " fill="#FFFFFF" transform="translate(185,123)"/>
<path d="M0 0 C0.99 0 1.98 0 3 0 C3 0.99 3 1.98 3 3 C2.01 3 1.02 3 0 3 C0 2.01 0 1.02 0 0 Z " fill="#FFFFFF" transform="translate(210,123)"/>
<path d="" fill="#FFFFFF" transform="translate(0,0)"/>
<path d="" fill="#FFFFFF" transform="translate(0,0)"/>
</svg>
