<?xml version="1.0" encoding="UTF-8"?>
<svg version="1.1" xmlns="http://www.w3.org/2000/svg" width="392" height="168">
<path d="M0 0 C1.86870205 1.62567226 3.69295507 3.27397114 5.47265625 4.99609375 C1.80379316 4.99609375 1.12286982 4.15589955 -1.71484375 1.93359375 C-13.09501786 -6.27615062 -28.25161304 -12.8480356 -42.52734375 -11.00390625 C-48.46813574 -9.32546 -48.46813574 -9.32546 -53.52734375 -6.00390625 C-52.75648437 -5.46121094 -51.985625 -4.91851562 -51.19140625 -4.359375 C-50.18851562 -3.64394531 -49.185625 -2.92851562 -48.15234375 -2.19140625 C-47.15460938 -1.48371094 -46.156875 -0.77601562 -45.12890625 -0.046875 C-42.52734375 1.99609375 -42.52734375 1.99609375 -40.52734375 4.99609375 C-46.13298311 3.27387925 -51.1163142 0.73800909 -56.30859375 -1.95703125 C-60.29849404 -3.25471727 -61.77277644 -2.75603766 -65.52734375 -1.00390625 C-67.34812781 -0.0140152 -69.14222396 1.02696523 -70.90234375 2.12109375 C-71.77632812 2.65992187 -72.6503125 3.19875 -73.55078125 3.75390625 C-74.20304687 4.16382812 -74.8553125 4.57375 -75.52734375 4.99609375 C-73.81380115 6.22648335 -72.08079189 7.42979766 -70.33984375 8.62109375 C-69.37691406 9.29398438 -68.41398437 9.966875 -67.421875 10.66015625 C-64.6154683 12.32830294 -64.6154683 12.32830294 -61.80859375 11.27734375 C-61.05578125 10.85453125 -60.30296875 10.43171875 -59.52734375 9.99609375 C-58.38265625 9.43921875 -58.38265625 9.43921875 -57.21484375 8.87109375 C-56.65796875 8.58234375 -56.10109375 8.29359375 -55.52734375 7.99609375 C-55.52734375 9.99609375 -55.52734375 9.99609375 -58.02734375 12.62109375 C-59.26484375 13.79671875 -59.26484375 13.79671875 -60.52734375 14.99609375 C-59.27894876 16.10207475 -58.02855141 17.20579576 -56.77734375 18.30859375 C-56.08125 18.92347656 -55.38515625 19.53835937 -54.66796875 20.171875 C-52.67619869 21.86924109 -50.6383546 23.45087184 -48.52734375 24.99609375 C-49.02234375 25.98609375 -49.02234375 25.98609375 -49.52734375 26.99609375 C-50.4915625 26.40699219 -51.45578125 25.81789062 -52.44921875 25.2109375 C-53.72487334 24.45117263 -55.0009366 23.69209363 -56.27734375 22.93359375 C-56.9115625 22.54365234 -57.54578125 22.15371094 -58.19921875 21.75195312 C-61.66737628 19.57035865 -61.66737628 19.57035865 -65.61035156 19.26391602 C-68.20963258 20.25668776 -69.61262361 22.0175496 -71.52734375 23.99609375 C-72.18734375 23.99609375 -72.84734375 23.99609375 -73.52734375 23.99609375 C-73.73359375 24.53234375 -73.93984375 25.06859375 -74.15234375 25.62109375 C-75.7860492 28.44294862 -77.80320473 30.33350106 -80.1875 32.53125 C-81.77843074 34.07111043 -81.77843074 34.07111043 -82.52734375 36.99609375 C-81.84671875 37.22296875 -81.16609375 37.44984375 -80.46484375 37.68359375 C-76.77020362 39.3343904 -73.29471248 40.97856739 -70.52734375 43.99609375 C-70.08984375 47.80859375 -70.08984375 47.80859375 -70.52734375 50.99609375 C-74.40378599 49.61811249 -77.40630381 47.80369649 -80.71484375 45.37109375 C-83.81840474 42.8089365 -83.81840474 42.8089365 -87.52734375 41.99609375 C-89.1695503 44.40604669 -90.67760974 46.79924166 -92.15234375 49.30859375 C-92.57257813 49.99888672 -92.9928125 50.68917969 -93.42578125 51.40039062 C-95.91385244 55.40096122 -95.91385244 55.40096122 -96.52734375 59.99609375 C-94.07520051 62.14540946 -94.07520051 62.14540946 -91.02734375 64.18359375 C-90.00640625 64.89902344 -88.98546875 65.61445312 -87.93359375 66.3515625 C-87.13953125 66.89425781 -86.34546875 67.43695313 -85.52734375 67.99609375 C-81.69473007 66.4870557 -79.91721071 64.24701566 -77.46484375 60.99609375 C-75.20766373 58.01540305 -73.65982986 56.08441782 -70.52734375 53.99609375 C-68.52734375 56.99609375 -68.52734375 56.99609375 -68.6484375 58.82421875 C-69.86391216 61.8277917 -71.64852763 64.15767226 -73.58984375 66.74609375 C-74.32332031 67.7309375 -75.05679688 68.71578125 -75.8125 69.73046875 C-76.37839844 70.478125 -76.94429687 71.22578125 -77.52734375 71.99609375 C-75.98074209 75.8058018 -73.62352974 78.01978564 -70.58984375 80.74609375 C-69.71457031 81.5453125 -68.83929688 82.34453125 -67.9375 83.16796875 C-65.63315076 85.29825873 -65.63315076 85.29825873 -62.52734375 84.99609375 C-59.88997268 82.73737696 -57.4660479 80.31091823 -55 77.8671875 C-52.52734375 75.99609375 -52.52734375 75.99609375 -50.2109375 76.21875 C-49.65535156 76.47527344 -49.09976563 76.73179688 -48.52734375 76.99609375 C-48.52734375 82.01635301 -49.69818003 82.76136221 -53.15234375 86.24609375 C-54.01085937 87.138125 -54.869375 88.03015625 -55.75390625 88.94921875 C-59.07121868 91.39748877 -60.4939151 91.57381218 -64.52734375 90.99609375 C-71.55091524 88.64042912 -76.71705228 84.5231505 -81.52734375 78.99609375 C-84.90103056 82.07122421 -87.03636337 85.28128231 -89.27734375 89.24609375 C-89.8909375 90.32375 -90.50453125 91.40140625 -91.13671875 92.51171875 C-91.595625 93.3315625 -92.05453125 94.15140625 -92.52734375 94.99609375 C-88.50525767 100.28798924 -88.50525767 100.28798924 -82.52734375 102.99609375 C-82.11742187 102.56296875 -81.7075 102.12984375 -81.28515625 101.68359375 C-80.74632812 101.12671875 -80.2075 100.56984375 -79.65234375 99.99609375 C-79.11867187 99.43921875 -78.585 98.88234375 -78.03515625 98.30859375 C-76.52734375 96.99609375 -76.52734375 96.99609375 -74.52734375 96.99609375 C-74.52734375 98.31609375 -74.52734375 99.63609375 -74.52734375 100.99609375 C-73.53734375 101.49109375 -73.53734375 101.49109375 -72.52734375 101.99609375 C-74.83734375 103.97609375 -77.14734375 105.95609375 -79.52734375 107.99609375 C-78.89505859 108.81013672 -78.89505859 108.81013672 -78.25 109.640625 C-77.42822266 110.71376953 -77.42822266 110.71376953 -76.58984375 111.80859375 C-76.04457031 112.51628906 -75.49929687 113.22398437 -74.9375 113.953125 C-73.52734375 115.99609375 -73.52734375 115.99609375 -72.52734375 118.99609375 C-70.46260943 118.23126537 -68.40064165 117.4589661 -66.33984375 116.68359375 C-65.19128906 116.25433594 -64.04273437 115.82507813 -62.859375 115.3828125 C-59.86802804 114.13787912 -57.2889024 112.66872519 -54.52734375 110.99609375 C-53.86734375 110.99609375 -53.20734375 110.99609375 -52.52734375 110.99609375 C-53.02234375 110.21234375 -53.51734375 109.42859375 -54.02734375 108.62109375 C-55.52734375 105.99609375 -55.52734375 105.99609375 -55.52734375 103.99609375 C-49.9683851 103.74341381 -49.9683851 103.74341381 -47.55859375 105.12402344 C-45.57246471 106.24890984 -45.57246471 106.24890984 -43.66796875 105.33691406 C-43.0440625 104.92022461 -42.42015625 104.50353516 -41.77734375 104.07421875 C-41.08640625 103.625625 -40.39546875 103.17703125 -39.68359375 102.71484375 C-38.97203125 102.23015625 -38.26046875 101.74546875 -37.52734375 101.24609375 C-36.11154373 100.31248649 -34.69490277 99.38015303 -33.27734375 98.44921875 C-32.6534375 98.02801758 -32.02953125 97.60681641 -31.38671875 97.17285156 C-29.48780569 95.97107097 -27.55248582 94.96722106 -25.52734375 93.99609375 C-28.90743597 101.51105607 -35.97022955 106.34650368 -42.52734375 110.99609375 C-41.76401979 114.4792225 -40.37287054 116.94696253 -38.52734375 119.99609375 C-38.52734375 120.65609375 -38.52734375 121.31609375 -38.52734375 121.99609375 C-37.61210938 121.62355469 -36.696875 121.25101563 -35.75390625 120.8671875 C-34.56539063 120.39410156 -33.376875 119.92101562 -32.15234375 119.43359375 C-30.96898438 118.95792969 -29.785625 118.48226562 -28.56640625 117.9921875 C-25.52734375 116.99609375 -25.52734375 116.99609375 -23.52734375 117.99609375 C-24.57535156 118.71925781 -24.57535156 118.71925781 -25.64453125 119.45703125 C-26.55460937 120.08867187 -27.4646875 120.7203125 -28.40234375 121.37109375 C-29.30726562 121.99757812 -30.2121875 122.6240625 -31.14453125 123.26953125 C-33.562285 124.92590325 -33.562285 124.92590325 -35.52734375 126.99609375 C-34.86734375 128.97609375 -34.20734375 130.95609375 -33.52734375 132.99609375 C-32.61210938 132.47917969 -31.696875 131.96226562 -30.75390625 131.4296875 C-29.55361835 130.76390281 -28.35308469 130.09856104 -27.15234375 129.43359375 C-26.5490625 129.09134766 -25.94578125 128.74910156 -25.32421875 128.39648438 C-23.75756134 127.5348228 -22.14443513 126.75891192 -20.52734375 125.99609375 C-19.86734375 126.32609375 -19.20734375 126.65609375 -18.52734375 126.99609375 C-22.68031184 130.6821601 -26.83569266 134.02090038 -31.52734375 136.99609375 C-31.03234375 140.46109375 -31.03234375 140.46109375 -30.52734375 143.99609375 C-11.46460775 138.27463634 3.6414059 129.54801036 16.47265625 113.99609375 C16.47265625 120.2137437 9.29159359 125.14364166 5.140625 129.37109375 C-11.95579448 145.70200191 -33.985901 151.81966687 -57.17578125 151.30078125 C-79.82315538 150.32313863 -99.82478978 139.37746248 -115.33984375 123.24609375 C-128.74527225 107.46912762 -135.9600167 88.45938245 -135.83984375 67.74609375 C-135.8349292 66.73828857 -135.83001465 65.7304834 -135.82495117 64.69213867 C-135.62888432 52.15693111 -132.93989905 41.34850201 -127.52734375 29.99609375 C-127.10839844 29.09375 -126.68945312 28.19140625 -126.2578125 27.26171875 C-116.78461827 8.36993083 -99.65344844 -5.78839177 -79.91796875 -12.90234375 C-53.07848383 -21.62208424 -22.48886625 -17.83120307 0 0 Z M-63.52734375 -11.00390625 C-61.06917275 -8.54573525 -59.96458628 -8.31551122 -56.52734375 -8.00390625 C-53.14083369 -8.73983971 -53.14083369 -8.73983971 -49.71484375 -9.94140625 C-48.55339844 -10.32167969 -47.39195313 -10.70195312 -46.1953125 -11.09375 C-44.87466797 -11.54427734 -44.87466797 -11.54427734 -43.52734375 -12.00390625 C-43.52734375 -12.33390625 -43.52734375 -12.66390625 -43.52734375 -13.00390625 C-50.56216849 -13.24059194 -56.71077025 -12.79185995 -63.52734375 -11.00390625 Z M-89.52734375 -1.00390625 C-89.85734375 -0.34390625 -90.18734375 0.31609375 -90.52734375 0.99609375 C-85.97816417 2.83742834 -83.28295687 3.13926998 -78.52734375 1.99609375 C-76.00232058 0.86875471 -73.59069312 -0.28105507 -71.15234375 -1.56640625 C-70.19134766 -2.06043945 -70.19134766 -2.06043945 -69.2109375 -2.56445312 C-67.64595743 -3.37030107 -66.08610354 -4.18609118 -64.52734375 -5.00390625 C-73.5355373 -11.00936861 -81.31211137 -6.03113801 -89.52734375 -1.00390625 Z M-100.203125 6.8203125 C-101.43635644 8.08798435 -102.64819896 9.37675237 -103.83984375 10.68359375 C-104.45923828 11.32232422 -105.07863281 11.96105469 -105.71679688 12.61914062 C-108.56100327 15.60540293 -110.80588065 18.21715867 -112.52734375 21.99609375 C-110.21734375 22.98609375 -107.90734375 23.97609375 -105.52734375 24.99609375 C-104.81449219 24.19945313 -104.10164063 23.4028125 -103.3671875 22.58203125 C-98.34670912 17.01327417 -93.39860312 11.69310125 -87.52734375 6.99609375 C-89.47264263 4.75044607 -89.47264263 4.75044607 -92.6953125 3.953125 C-96.84847728 3.99969464 -97.3033873 4.19821751 -100.203125 6.8203125 Z M-89.96484375 14.62109375 C-90.53783203 15.14316406 -91.11082031 15.66523437 -91.70117188 16.203125 C-95.2669326 19.5267915 -97.98520106 22.83622389 -100.52734375 26.99609375 C-98.78611826 28.03182271 -97.0339778 29.04921895 -95.27734375 30.05859375 C-94.3028125 30.62707031 -93.32828125 31.19554688 -92.32421875 31.78125 C-89.72083211 33.13761151 -89.72083211 33.13761151 -87.46875 32.9765625 C-84.65194008 31.55398848 -82.86985528 29.54024776 -80.71484375 27.24609375 C-77.75531519 24.17695302 -74.93714514 21.38622422 -71.40234375 18.99609375 C-70.45359375 18.33609375 -69.50484375 17.67609375 -68.52734375 16.99609375 C-68.52734375 16.33609375 -68.52734375 15.67609375 -68.52734375 14.99609375 C-70.46104606 13.98876976 -72.39944681 12.99046087 -74.33984375 11.99609375 C-75.41878906 11.43921875 -76.49773437 10.88234375 -77.609375 10.30859375 C-83.55675329 7.63346777 -85.74114674 10.62863825 -89.96484375 14.62109375 Z M-114.52734375 23.99609375 C-118.87773227 32.16052152 -122.57235929 39.87283293 -124.52734375 48.99609375 C-122.54734375 49.32609375 -120.56734375 49.65609375 -118.52734375 49.99609375 C-118.0684375 49.00609375 -117.60953125 48.01609375 -117.13671875 46.99609375 C-114.01901968 40.28425072 -110.89118977 33.58923195 -107.52734375 26.99609375 C-109.83734375 26.00609375 -112.14734375 25.01609375 -114.52734375 23.99609375 Z M-103.52734375 29.99609375 C-107.71755384 36.05578219 -111.62222089 42.83545954 -113.52734375 49.99609375 C-113.19734375 50.98609375 -112.86734375 51.97609375 -112.52734375 52.99609375 C-109.03388405 54.7428236 -106.45888807 55.99609375 -102.52734375 55.99609375 C-100.85773614 53.60328712 -99.39754182 51.27493439 -97.96484375 48.74609375 C-97.56587891 48.06417969 -97.16691406 47.38226563 -96.75585938 46.6796875 C-94.90754135 43.50144448 -93.11062892 40.31671345 -91.52734375 36.99609375 C-93.33809393 35.82671308 -95.15099118 34.66065642 -96.96484375 33.49609375 C-97.97417969 32.84640625 -98.98351562 32.19671875 -100.0234375 31.52734375 C-102.18036193 29.90914056 -102.18036193 29.90914056 -103.52734375 29.99609375 Z M-125.52734375 51.99609375 C-126.93494557 60.96955535 -127.22038615 70.04715534 -125.52734375 78.99609375 C-124.20734375 79.32609375 -122.88734375 79.65609375 -121.52734375 79.99609375 C-120.86734375 71.08609375 -120.20734375 62.17609375 -119.52734375 52.99609375 C-122.49734375 52.50109375 -122.49734375 52.50109375 -125.52734375 51.99609375 Z M-114.52734375 55.99609375 C-117.25143433 64.71318359 -117.67769214 72.90836864 -117.52734375 81.99609375 C-115.54734375 82.65609375 -113.56734375 83.31609375 -111.52734375 83.99609375 C-110.52087649 80.56045353 -109.52328925 77.12229746 -108.52734375 73.68359375 C-108.24117187 72.70712891 -107.955 71.73066406 -107.66015625 70.72460938 C-107.38945313 69.78681641 -107.11875 68.84902344 -106.83984375 67.8828125 C-106.58847656 67.01873779 -106.33710937 66.15466309 -106.078125 65.2644043 C-105.40936413 62.89924929 -105.40936413 62.89924929 -105.52734375 59.99609375 C-107.19796875 59.00609375 -107.19796875 59.00609375 -108.90234375 57.99609375 C-109.52882813 57.62484375 -110.1553125 57.25359375 -110.80078125 56.87109375 C-112.50207042 55.84541027 -112.50207042 55.84541027 -114.52734375 55.99609375 Z M-100.52734375 63.99609375 C-103.8576737 71.48510983 -105.86885342 78.98005716 -107.52734375 86.99609375 C-102.57734375 89.96609375 -102.57734375 89.96609375 -97.52734375 92.99609375 C-96.2324118 90.60197538 -94.94132203 88.20591495 -93.65234375 85.80859375 C-93.28753906 85.13505859 -92.92273438 84.46152344 -92.546875 83.76757812 C-90.65374969 80.23948095 -88.91653841 76.76154242 -87.52734375 72.99609375 C-89.50436941 71.49319642 -91.48380205 69.99368033 -93.46484375 68.49609375 C-94.02880859 68.06683594 -94.59277344 67.63757813 -95.17382812 67.1953125 C-97.60286408 64.97522226 -97.60286408 64.97522226 -100.52734375 63.99609375 Z M-124.52734375 81.99609375 C-123.17508852 89.68245401 -123.17508852 89.68245401 -120.52734375 96.99609375 C-119.39001949 93.59207427 -119.68744418 91.22152711 -120.46484375 87.74609375 C-120.65949219 86.8540625 -120.85414062 85.96203125 -121.0546875 85.04296875 C-121.21066406 84.3675 -121.36664063 83.69203125 -121.52734375 82.99609375 C-122.51734375 82.66609375 -123.50734375 82.33609375 -124.52734375 81.99609375 Z M-117.52734375 85.99609375 C-117.24347335 88.53884773 -116.95050953 91.08000929 -116.65234375 93.62109375 C-116.57371094 94.33394531 -116.49507812 95.04679687 -116.4140625 95.78125 C-115.90159229 100.0781156 -115.05849948 103.91730075 -113.52734375 107.99609375 C-113.19734375 107.99609375 -112.86734375 107.99609375 -112.52734375 107.99609375 C-112.52734375 101.39609375 -112.52734375 94.79609375 -112.52734375 87.99609375 C-115.00234375 87.00609375 -115.00234375 87.00609375 -117.52734375 85.99609375 Z M-108.52734375 91.99609375 C-108.85734375 97.60609375 -109.18734375 103.21609375 -109.52734375 108.99609375 C-107.54734375 109.98609375 -107.54734375 109.98609375 -105.52734375 110.99609375 C-104.65887544 109.25314697 -103.80803748 107.50140712 -102.96484375 105.74609375 C-102.48917969 104.7715625 -102.01351562 103.79703125 -101.5234375 102.79296875 C-100.47994875 99.86301602 -100.26513582 98.79010742 -101.52734375 95.99609375 C-104.56360449 92.93706407 -104.56360449 92.93706407 -108.52734375 91.99609375 Z M-119.52734375 97.99609375 C-118.52734375 99.99609375 -118.52734375 99.99609375 -118.52734375 99.99609375 Z M-96.52734375 100.99609375 C-97.58833703 102.73444432 -98.62560858 104.48729179 -99.65234375 106.24609375 C-100.23242188 107.220625 -100.8125 108.19515625 -101.41015625 109.19921875 C-102.84661698 111.90859164 -102.84661698 111.90859164 -101.70703125 114.35546875 C-101.31773438 114.896875 -100.9284375 115.43828125 -100.52734375 115.99609375 C-95.94500329 115.99609375 -95.47226253 115.47801795 -92.27734375 112.49609375 C-91.5709375 111.84640625 -90.86453125 111.19671875 -90.13671875 110.52734375 C-89.605625 110.02203125 -89.07453125 109.51671875 -88.52734375 108.99609375 C-90.21594406 105.2576112 -92.17898545 103.4000433 -95.52734375 100.99609375 C-95.85734375 100.99609375 -96.18734375 100.99609375 -96.52734375 100.99609375 Z M-91.08984375 114.99609375 C-92.10175781 115.73859375 -93.11367187 116.48109375 -94.15625 117.24609375 C-95.32994141 118.11234375 -95.32994141 118.11234375 -96.52734375 118.99609375 C-94.54734375 121.96609375 -94.54734375 121.96609375 -92.52734375 124.99609375 C-86.95843858 124.51623344 -81.85666807 123.69694194 -76.52734375 121.99609375 C-77.88534846 119.03078878 -79.45162638 116.70478104 -81.58984375 114.24609375 C-82.38068359 113.32570312 -82.38068359 113.32570312 -83.1875 112.38671875 C-83.62964844 111.9278125 -84.07179688 111.46890625 -84.52734375 110.99609375 C-86.775752 110.99609375 -89.40234619 113.75471623 -91.08984375 114.99609375 Z M-58.98046875 120.06445312 C-61.80379925 121.58872202 -64.47686519 122.97926756 -67.52734375 123.99609375 C-67.19734375 125.64609375 -66.86734375 127.29609375 -66.52734375 128.99609375 C-61.40486431 130.73836272 -57.17978206 129.05943935 -52.21484375 127.55859375 C-51.37888672 127.31560547 -50.54292969 127.07261719 -49.68164062 126.82226562 C-47.62726188 126.22356096 -45.57688108 125.61116778 -43.52734375 124.99609375 C-43.52734375 121.62581523 -44.02558383 120.92906679 -45.96484375 118.30859375 C-46.41730469 117.68597656 -46.86976562 117.06335938 -47.3359375 116.421875 C-47.72910156 115.95136719 -48.12226562 115.48085937 -48.52734375 114.99609375 C-51.6856138 114.99609375 -56.14290859 118.52032969 -58.98046875 120.06445312 Z M-105.52734375 117.99609375 C-104.86734375 119.31609375 -104.20734375 120.63609375 -103.52734375 121.99609375 C-103.52734375 121.00609375 -103.52734375 120.01609375 -103.52734375 118.99609375 C-104.18734375 118.66609375 -104.84734375 118.33609375 -105.52734375 117.99609375 Z M-101.52734375 121.99609375 C-101.52734375 122.98609375 -101.52734375 123.97609375 -101.52734375 124.99609375 C-99.54734375 125.49109375 -99.54734375 125.49109375 -97.52734375 125.99609375 C-98.84734375 124.67609375 -100.16734375 123.35609375 -101.52734375 121.99609375 Z M-81.58984375 127.49609375 C-82.72776367 127.71072266 -82.72776367 127.71072266 -83.88867188 127.9296875 C-85.76838153 128.2843497 -87.64788221 128.64011907 -89.52734375 128.99609375 C-89.52734375 129.65609375 -89.52734375 130.31609375 -89.52734375 130.99609375 C-82.92734375 130.99609375 -76.32734375 130.99609375 -69.52734375 130.99609375 C-70.51734375 129.34609375 -71.50734375 127.69609375 -72.52734375 125.99609375 C-75.51748359 125.99609375 -78.6433492 126.93749273 -81.58984375 127.49609375 Z M-43.34326172 128.41748047 C-44.06143066 128.66771973 -44.77959961 128.91795898 -45.51953125 129.17578125 C-46.70095703 129.57990234 -46.70095703 129.57990234 -47.90625 129.9921875 C-48.72996094 130.28222656 -49.55367187 130.57226562 -50.40234375 130.87109375 C-52.02430533 131.43224633 -53.64668777 131.99218423 -55.26953125 132.55078125 C-55.98995605 132.80327637 -56.71038086 133.05577148 -57.45263672 133.31591797 C-59.46203397 133.97468247 -61.47006217 134.5100168 -63.52734375 134.99609375 C-63.52734375 135.98609375 -63.52734375 136.97609375 -63.52734375 137.99609375 C-54.33722181 138.36315483 -46.33380494 137.70577412 -37.52734375 134.99609375 C-38.12918124 132.97563933 -38.80040471 130.97498336 -39.52734375 128.99609375 C-41.44220572 127.77290468 -41.44220572 127.77290468 -43.34326172 128.41748047 Z M-83.52734375 135.99609375 C-83.52734375 136.32609375 -83.52734375 136.65609375 -83.52734375 136.99609375 C-77.86091824 138.22126683 -72.29025857 138.08838242 -66.52734375 137.99609375 C-66.52734375 137.33609375 -66.52734375 136.67609375 -66.52734375 135.99609375 C-72.13734375 135.99609375 -77.74734375 135.99609375 -83.52734375 135.99609375 Z M-41.44311523 139.36816406 C-48.13264174 141.23906654 -54.55466284 142.66796759 -61.52734375 142.99609375 C-61.52734375 143.65609375 -61.52734375 144.31609375 -61.52734375 144.99609375 C-56.61808538 145.9763894 -51.94506802 146.147191 -46.96484375 146.12109375 C-46.22298828 146.12496094 -45.48113281 146.12882813 -44.71679688 146.1328125 C-40.86234069 146.12594793 -37.27303313 145.93066179 -33.52734375 144.99609375 C-34.18734375 142.68609375 -34.84734375 140.37609375 -35.52734375 137.99609375 C-37.56396 137.99609375 -39.49562106 138.81929046 -41.44311523 139.36816406 Z " fill="#9D9D9D" transform="translate(135.52734375,17.00390625)"/>
<path d="M0 0 C14.52 0 29.04 0 44 0 C43.67 2.64 43.34 5.28 43 8 C31.78 8 20.56 8 9 8 C9 11.3 9 14.6 9 18 C8.67 21.96 8.34 25.92 8 30 C17.9 30 27.8 30 38 30 C38 31.98 38 33.96 38 36 C37 37 37 37 34.13256836 37.11352539 C32.88096924 37.10828857 31.62937012 37.10305176 30.33984375 37.09765625 C29.34314415 37.09553383 29.34314415 37.09553383 28.3263092 37.09336853 C26.19666101 37.08775518 24.06711661 37.07520054 21.9375 37.0625 C20.49674631 37.05748671 19.05599097 37.05292351 17.61523438 37.04882812 C14.07678898 37.03778145 10.53840461 37.02050792 7 37 C6.97494385 37.59014893 6.9498877 38.18029785 6.92407227 38.78833008 C6.80799948 41.46326814 6.68532428 44.1378638 6.5625 46.8125 C6.50352539 48.2056543 6.50352539 48.2056543 6.44335938 49.62695312 C6.40146484 50.51962891 6.35957031 51.41230469 6.31640625 52.33203125 C6.26141968 53.56530151 6.26141968 53.56530151 6.20532227 54.82348633 C6 57 6 57 5 60 C16.22 60 27.44 60 39 60 C39 62.31 39 64.62 39 67 C38 68 38 68 36.24729919 68.12025452 C35.10479454 68.1169236 35.10479454 68.1169236 33.93920898 68.11352539 C33.07839218 68.11344986 32.21757538 68.11337433 31.33067322 68.11329651 C30.39526199 68.10813522 29.45985077 68.10297394 28.49609375 68.09765625 C27.54307877 68.0962413 26.59006378 68.09482635 25.60816956 68.09336853 C22.55124835 68.08775152 19.49439923 68.07519616 16.4375 68.0625 C14.37044376 68.05748719 12.30338638 68.05292391 10.23632812 68.04882812 C5.15752412 68.03777656 0.0787743 68.02050055 -5 68 C-5.12652662 60.49321136 -4.73819724 53.08818918 -4.16015625 45.60546875 C-4.07374374 44.45508621 -3.98733124 43.30470367 -3.89830017 42.11946106 C-3.71600506 39.70490932 -3.53185959 37.29049663 -3.34594727 34.8762207 C-3.06204088 31.18152513 -2.78549871 27.4863292 -2.50976562 23.79101562 C-2.33116644 21.43746678 -2.15214476 19.08394994 -1.97265625 16.73046875 C-1.89032242 15.62833542 -1.80798859 14.52620209 -1.72315979 13.39067078 C-1.64315231 12.36222549 -1.56314484 11.33378021 -1.48071289 10.27416992 C-1.41187393 9.37389572 -1.34303497 8.47362152 -1.27210999 7.54606628 C-1.00103282 5.00966387 -0.50026224 2.5013112 0 0 Z " fill="#0065B1" transform="translate(347,50)"/>
<path d="M0 0 C14.52 0 29.04 0 44 0 C43.67 2.64 43.34 5.28 43 8 C31.78 8 20.56 8 9 8 C9 11.63 9 15.26 9 19 C8.67 22.63 8.34 26.26 8 30 C17.9 30 27.8 30 38 30 C38 31.98 38 33.96 38 36 C37 37 37 37 34.13256836 37.11352539 C32.88096924 37.10828857 31.62937012 37.10305176 30.33984375 37.09765625 C29.34314415 37.09553383 29.34314415 37.09553383 28.3263092 37.09336853 C26.19666101 37.08775518 24.06711661 37.07520054 21.9375 37.0625 C20.49674631 37.05748671 19.05599097 37.05292351 17.61523438 37.04882812 C14.07678898 37.03778145 10.53840461 37.02050792 7 37 C6.97494385 37.59014893 6.9498877 38.18029785 6.92407227 38.78833008 C6.80799948 41.46326814 6.68532428 44.1378638 6.5625 46.8125 C6.50352539 48.2056543 6.50352539 48.2056543 6.44335938 49.62695312 C6.40146484 50.51962891 6.35957031 51.41230469 6.31640625 52.33203125 C6.26141968 53.56530151 6.26141968 53.56530151 6.20532227 54.82348633 C6 57 6 57 5 60 C16.22 60 27.44 60 39 60 C39 62.31 39 64.62 39 67 C38 68 38 68 36.24729919 68.12025452 C35.10479454 68.1169236 35.10479454 68.1169236 33.93920898 68.11352539 C33.07839218 68.11344986 32.21757538 68.11337433 31.33067322 68.11329651 C30.39526199 68.10813522 29.45985077 68.10297394 28.49609375 68.09765625 C27.54307877 68.0962413 26.59006378 68.09482635 25.60816956 68.09336853 C22.55124835 68.08775152 19.49439923 68.07519616 16.4375 68.0625 C14.37044376 68.05748719 12.30338638 68.05292391 10.23632812 68.04882812 C5.15752412 68.03777656 0.0787743 68.02050055 -5 68 C-5.12449332 60.57620901 -4.74512442 53.25833366 -4.16015625 45.859375 C-4.07374374 44.73356018 -3.98733124 43.60774536 -3.89830017 42.44781494 C-3.71602437 40.08453333 -3.53187899 37.72139523 -3.34594727 35.35839844 C-3.06227296 31.7471097 -2.78558583 28.13533371 -2.50976562 24.5234375 C-2.33114235 22.21871794 -2.15211975 19.91402929 -1.97265625 17.609375 C-1.89032242 16.53427673 -1.80798859 15.45917847 -1.72315979 14.35150146 C-1.64315231 13.34315247 -1.56314484 12.33480347 -1.48071289 11.29589844 C-1.41187393 10.41560974 -1.34303497 9.53532104 -1.27210999 8.62835693 C-0.97273091 5.7366032 -0.47794231 2.86765385 0 0 Z " fill="#0065B1" transform="translate(129,50)"/>
<path d="M0 0 C1 1 1 1 1.09765625 2.84765625 C1.06510417 4.8984375 1.03255208 6.94921875 1 9 C0.14535156 8.84015625 -0.70929688 8.6803125 -1.58984375 8.515625 C-4.95572759 8.00669411 -8.16039985 7.79819977 -11.5625 7.75 C-13.20412109 7.71132813 -13.20412109 7.71132813 -14.87890625 7.671875 C-18.36742162 8.03862755 -20.20610533 8.91847268 -23 11 C-24.50889469 14.01778937 -24.50026276 15.62322637 -24 19 C-20.13853304 25.11285229 -13.97630994 29.91327713 -8.62036133 34.69970703 C-2.6590325 40.06267361 1.52826377 44.70299226 2 53 C1.20016692 58.63984866 -1.6053397 62.38706069 -6.0546875 65.8125 C-14.23083369 70.80356113 -24.22722354 69.53846996 -33.125 67.5 C-35.08607495 67.01086352 -37.0454714 66.51467211 -39 66 C-39 63.03 -39 60.06 -39 57 C-37.618125 57.495 -36.23625 57.99 -34.8125 58.5 C-28.00151832 60.53747315 -19.74477871 61.88544646 -13.19921875 58.58984375 C-10.74442905 56.81524445 -9.83015435 55.90554021 -9 53 C-9.35529089 48.09296362 -10.49172014 45.90053607 -14.0625 42.5625 C-14.87589844 41.79164062 -15.68929688 41.02078125 -16.52734375 40.2265625 C-18.70331473 38.26715735 -20.90190311 36.34301162 -23.125 34.4375 C-29.14311662 29.26360815 -34.62810087 24.46278961 -35.3125 16.25 C-35.22270263 11.80094863 -33.93515562 8.36030351 -31 5 C-21.99322978 -2.27686863 -10.98534254 -2.14930615 0 0 Z " fill="#0065B1" transform="translate(320,50)"/>
<path d="M0 0 C1 1 1 1 1.09765625 2.84765625 C1.06510417 4.8984375 1.03255208 6.94921875 1 9 C0.14535156 8.84015625 -0.70929688 8.6803125 -1.58984375 8.515625 C-4.95572759 8.00669411 -8.16039985 7.79819977 -11.5625 7.75 C-13.20412109 7.71132813 -13.20412109 7.71132813 -14.87890625 7.671875 C-18.36742162 8.03862755 -20.20610533 8.91847268 -23 11 C-24.50889469 14.01778937 -24.50026276 15.62322637 -24 19 C-20.13853304 25.11285229 -13.97630994 29.91327713 -8.62036133 34.69970703 C-4.08966714 38.77563745 0.44511457 42.9218115 2 49 C2 53.99414186 1.12859626 58.0083427 -2 62 C-7.51087117 67.51087117 -13.01960245 69.01423494 -20.6875 69.3125 C-26.97267075 69.20464216 -32.95014616 67.59306496 -39 66 C-39 63.03 -39 60.06 -39 57 C-37.618125 57.495 -36.23625 57.99 -34.8125 58.5 C-28.00151832 60.53747315 -19.74477871 61.88544646 -13.19921875 58.58984375 C-10.74442905 56.81524445 -9.83015435 55.90554021 -9 53 C-9.32365953 47.79267779 -10.80619792 45.60087921 -14.5625 42.0625 C-15.46613281 41.20140625 -16.36976562 40.3403125 -17.30078125 39.453125 C-20.21661715 36.80313232 -23.18580631 34.22559114 -26.17578125 31.66015625 C-31.25295149 27.03960517 -34.72616487 23.28602154 -35.3125 16.25 C-35.22270263 11.80094863 -33.93515562 8.36030351 -31 5 C-21.99322978 -2.27686863 -10.98534254 -2.14930615 0 0 Z " fill="#0065B1" transform="translate(102,50)"/>
<path d="M0 0 C3.63 0 7.26 0 11 0 C10.45112759 7.25930487 9.89970079 14.51840959 9.34594727 21.77734375 C9.15807701 24.24473879 8.97089436 26.71218628 8.78442383 29.1796875 C8.51566155 32.73451663 8.24439461 36.28914728 7.97265625 39.84375 C7.89032242 40.93989624 7.80798859 42.03604248 7.72315979 43.16540527 C7.64315231 44.20588013 7.56314484 45.24635498 7.48071289 46.31835938 C7.41187393 47.2243689 7.34303497 48.13037842 7.27210999 49.06384277 C6.93344519 52.71814852 6.45520315 56.35837476 6 60 C16.56 60 27.12 60 38 60 C37.67 62.64 37.34 65.28 37 68 C23.14 68 9.28 68 -5 68 C-4.39659922 58.34558753 -3.77991698 48.70442162 -3.02734375 39.0625 C-2.93997452 37.93094482 -2.85260529 36.79938965 -2.7625885 35.63354492 C-2.48865544 32.08894406 -2.21311115 28.54447073 -1.9375 25 C-1.74924127 22.56771667 -1.56108942 20.13542506 -1.37304688 17.703125 C-0.91659578 11.80198728 -0.45870171 5.90096318 0 0 Z " fill="#0065B1" transform="translate(195,50)"/>
<path d="M0 0 C3.63 0 7.26 0 11 0 C9.35 22.44 7.7 44.88 6 68 C2.37 68 -1.26 68 -5 68 C-3.35 45.56 -1.7 23.12 0 0 Z " fill="#0065B1" transform="translate(254,50)"/>
<path d="M0 0 C3.4585388 -0.05375967 6.91624908 -0.09355681 10.375 -0.125 C11.35984375 -0.14175781 12.3446875 -0.15851563 13.359375 -0.17578125 C14.77089844 -0.18544922 14.77089844 -0.18544922 16.2109375 -0.1953125 C17.51490479 -0.21102295 17.51490479 -0.21102295 18.84521484 -0.22705078 C21 0 21 0 23 2 C23.1953125 5.0390625 23.1953125 5.0390625 23.125 8.625 C23.10695313 9.81351563 23.08890625 11.00203125 23.0703125 12.2265625 C23.04710937 13.14179688 23.02390625 14.05703125 23 15 C21.68 15.33 20.36 15.66 19 16 C19 12.04 19 8.08 19 4 C18.34 3.67 17.68 3.34 17 3 C16.01 3.66 15.02 4.32 14 5 C13.41651248 7.6556728 13.41651248 7.6556728 13.3125 10.625 C13.24675781 11.62789062 13.18101562 12.63078125 13.11328125 13.6640625 C13.07589844 14.43492187 13.03851563 15.20578125 13 16 C11.68 16 10.36 16 9 16 C9 12.04 9 8.08 9 4 C8.34 3.67 7.68 3.34 7 3 C6.01 3.495 6.01 3.495 5 4 C4.30772968 6.80980673 4.30772968 6.80980673 3.875 10.0625 C3.70742188 11.16722656 3.53984375 12.27195313 3.3671875 13.41015625 C3.24601562 14.26480469 3.12484375 15.11945313 3 16 C2.01 16 1.02 16 0 16 C0 10.72 0 5.44 0 0 Z " fill="#616161" transform="translate(344,129)"/>
<path d="M0 0 C-0.05197921 3.08469706 -0.14707135 6.16661559 -0.25 9.25 C-0.27126953 10.55904297 -0.27126953 10.55904297 -0.29296875 11.89453125 C-0.53868113 18.33219561 -0.53868113 18.33219561 -2.7890625 21.58984375 C-6.39006024 23.88659319 -8.79178641 23.33937206 -13 23 C-13.66 22.67 -14.32 22.34 -15 22 C-15 21.01 -15 20.02 -15 19 C-12.03 19 -9.06 19 -6 19 C-5.67 17.68 -5.34 16.36 -5 15 C-6.0725 15.226875 -7.145 15.45375 -8.25 15.6875 C-12 16 -12 16 -14.4375 15.0625 C-16.42090844 12.44440086 -16.63343567 10.25579802 -16.4296875 7.0078125 C-16 5 -16 5 -14.1875 2 C-9.54501743 -0.91293024 -5.33972223 -0.42081874 0 0 Z M-12 4 C-12.99510849 7.46537413 -12.99510849 7.46537413 -13 11 C-11.17084359 13.23845015 -11.17084359 13.23845015 -8.5 13.3125 C-7.675 13.209375 -6.85 13.10625 -6 13 C-3.94074319 9.91111478 -3.7609626 9.29064073 -3.875 5.8125 C-3.936875 3.9253125 -3.936875 3.9253125 -4 2 C-8.44894759 1.88053571 -8.44894759 1.88053571 -12 4 Z " fill="#626262" transform="translate(207,129)"/>
<path d="M0 0 C9.9389332 -0.6168993 9.9389332 -0.6168993 13.6875 1.5625 C15.52844834 4.98140406 15.53769821 7.16890025 15 11 C13.375 13.9375 13.375 13.9375 11 16 C7.81894588 16.38172649 5.87470493 16.43735246 3 15 C2.67 17.31 2.34 19.62 2 22 C1.01 22 0.02 22 -1 22 C-1.10331031 14.57313685 -0.99862699 7.36487404 0 0 Z M3 3 C2.95875 4.27875 2.9175 5.5575 2.875 6.875 C2.85179687 7.59429687 2.82859375 8.31359375 2.8046875 9.0546875 C2.81668311 11.23863645 2.81668311 11.23863645 5 13 C8.30683466 12.71016731 8.30683466 12.71016731 11 11 C11.33338596 7.54187831 11.33338596 7.54187831 11 4 C7.77224158 1.84816105 6.50896138 1.24551931 3 3 Z " fill="#626262" transform="translate(257,129)"/>
<path d="M0 0 C1.32 0 2.64 0 4 0 C3.67 6.93 3.34 13.86 3 21 C1.68 20.67 0.36 20.34 -1 20 C-1.33 20.33 -1.66 20.66 -2 21 C-5.52371092 21.39152344 -7.37616451 21.41041808 -10.375 19.4375 C-12.64970619 16.02544071 -12.63534983 14.02388226 -12 10 C-9.9375 7.0625 -9.9375 7.0625 -7 5 C-3.1875 4.6875 -3.1875 4.6875 0 5 C0 3.35 0 1.7 0 0 Z M-6.8125 9.1875 C-9.30864494 11.76893114 -9.30864494 11.76893114 -8.875 14.75 C-8.19908102 16.93516519 -8.19908102 16.93516519 -7 18 C-4.54207971 18.33343551 -4.54207971 18.33343551 -2 18 C0.05925681 14.91111478 0.2390374 14.29064073 0.125 10.8125 C0.063125 8.9253125 0.063125 8.9253125 0 7 C-4.06760656 6.59070626 -4.06760656 6.59070626 -6.8125 9.1875 Z " fill="#616161" transform="translate(178,124)"/>
<path d="M0 0 C1.81242052 -0.02687279 3.62495233 -0.04633715 5.4375 -0.0625 C6.44683594 -0.07410156 7.45617187 -0.08570313 8.49609375 -0.09765625 C11 0 11 0 12 1 C12.07313567 3.53049402 12.09247527 6.03304837 12.0625 8.5625 C12.05798828 9.27341797 12.05347656 9.98433594 12.04882812 10.71679688 C12.03700864 12.47790013 12.01907263 14.23896036 12 16 C10.68 16 9.36 16 8 16 C7.875 10.25 7.875 10.25 9 8 C6.36 8.66 3.72 9.32 1 10 C1 10.99 1 11.98 1 13 C2.98 13 4.96 13 7 13 C7 13.99 7 14.98 7 16 C3.625 16.125 3.625 16.125 0 16 C-2 14 -2 14 -2.4375 11.5625 C-2 9 -2 9 0.1875 7.3125 C2.76453169 6.10988521 5.33425408 4.9901342 8 4 C8 3.67 8 3.34 8 3 C5.36 3 2.72 3 0 3 C0 2.01 0 1.02 0 0 Z " fill="#626262" transform="translate(227,129)"/>
<path d="M0 0 C1.62490954 -0.02698189 3.24994633 -0.04638757 4.875 -0.0625 C5.77992188 -0.07410156 6.68484375 -0.08570313 7.6171875 -0.09765625 C10 0 10 0 12 1 C12 5.62 12 10.24 12 15 C10.68 15.33 9.36 15.66 8 16 C8 13.69 8 11.38 8 9 C5.69 9.33 3.38 9.66 1 10 C1 10.99 1 11.98 1 13 C2.98 13 4.96 13 7 13 C7 13.99 7 14.98 7 16 C3.625 16.125 3.625 16.125 0 16 C-2 14 -2 14 -2.4375 11.5625 C-2 9 -2 9 0.1875 7.3125 C2.76453169 6.10988521 5.33425408 4.9901342 8 4 C8 3.67 8 3.34 8 3 C5.36 3 2.72 3 0 3 C0 2.01 0 1.02 0 0 Z " fill="#626262" transform="translate(282,129)"/>
<path d="M0 0 C2.94599124 2.23181154 2.96904193 3.78716329 3.5 7.4375 C3 11 3 11 0.875 13.9375 C-2 16 -2 16 -5 16.5625 C-8.80484394 15.84909176 -10.4511805 14.9236459 -13 12 C-13.52399488 7.80804098 -13.44675919 4.53420772 -11 1 C-7.54729316 -0.72635342 -3.77570243 -0.48406441 0 0 Z M-9 4 C-10.00932746 6.95034182 -10.24408113 8.3979332 -9.0625 11.3125 C-8.711875 11.869375 -8.36125 12.42625 -8 13 C-4.535 12.505 -4.535 12.505 -1 12 C0.12645378 7.69770168 0.12645378 7.69770168 -1.25 3.625 C-4.27030999 0.82042644 -5.76475609 1.84317073 -9 4 Z " fill="#626262" transform="translate(328,129)"/>
<path d="M0 0 C0.33 0.99 0.66 1.98 1 3 C-0.65 3 -2.3 3 -4 3 C-4 3.99 -4 4.98 -4 6 C-2.68 6 -1.36 6 0 6 C0 6.99 0 7.98 0 9 C-1.32 9 -2.64 9 -4 9 C-3.98839844 9.60328125 -3.97679687 10.2065625 -3.96484375 10.828125 C-3.95130859 12.02695313 -3.95130859 12.02695313 -3.9375 13.25 C-3.92589844 14.03890625 -3.91429687 14.8278125 -3.90234375 15.640625 C-3.99614694 17.90691002 -4.36758937 19.8288895 -5 22 C-5.99 22 -6.98 22 -8 22 C-8.33 16.72 -8.66 11.44 -9 6 C-8.34 6 -7.68 6 -7 6 C-7 4.35 -7 2.7 -7 1 C-4.53721199 -0.231394 -2.7204945 -0.07159196 0 0 Z " fill="#616161" transform="translate(315,123)"/>
<path d="M0 0 C0 0.99 0 1.98 0 3 C1.32 3 2.64 3 4 3 C4 3.99 4 4.98 4 6 C2.68 6 1.36 6 0 6 C0 8.97 0 11.94 0 15 C0.99 15.33 1.98 15.66 3 16 C3 16.99 3 17.98 3 19 C1.00045254 19.04254356 -1.00041636 19.04080783 -3 19 C-4.78147298 17.21852702 -4.337761 14.54120228 -4.5 12.125 C-4.72347251 8.81281812 -4.94792065 6.15623804 -6 3 C-3.375 0 -3.375 0 0 0 Z " fill="#636363" transform="translate(221,126)"/>
<path d="M0 0 C2.05078125 0.03255208 4.1015625 0.06510417 6.15234375 0.09765625 C5.82234375 1.08765625 5.49234375 2.07765625 5.15234375 3.09765625 C3.08984375 3.78515625 3.08984375 3.78515625 1.15234375 4.09765625 C1.15234375 4.75765625 1.15234375 5.41765625 1.15234375 6.09765625 C2.11140625 6.56171875 2.11140625 6.56171875 3.08984375 7.03515625 C5.15234375 8.09765625 5.15234375 8.09765625 6.15234375 9.09765625 C6.33984375 11.53515625 6.33984375 11.53515625 6.15234375 14.09765625 C4.15234375 16.09765625 4.15234375 16.09765625 0.52734375 16.22265625 C-0.58640625 16.18140625 -1.70015625 16.14015625 -2.84765625 16.09765625 C-3.17765625 14.77765625 -3.50765625 13.45765625 -3.84765625 12.09765625 C-1.53765625 12.42765625 0.77234375 12.75765625 3.15234375 13.09765625 C2.71921875 12.65035156 2.28609375 12.20304688 1.83984375 11.7421875 C-2.74638432 6.76315749 -2.74638432 6.76315749 -3.28515625 3.22265625 C-2.65051034 0.1400904 -2.65051034 0.1400904 0 0 Z " fill="#636363" transform="translate(372.84765625,128.90234375)"/>
<path d="M0 0 C0.99 0 1.98 0 3 0 C3 0.99 3 1.98 3 3 C4.32 3 5.64 3 7 3 C7 3.99 7 4.98 7 6 C5.68 6 4.36 6 3 6 C3 9.3 3 12.6 3 16 C4.32 16 5.64 16 7 16 C7 16.99 7 17.98 7 19 C5.02 19 3.04 19 1 19 C-1.48887372 14.31506124 -0.85687773 11.0555786 0 6 C-0.66 6 -1.32 6 -2 6 C-2 5.01 -2 4.02 -2 3 C-1.34 3 -0.68 3 0 3 C0 2.01 0 1.02 0 0 Z " fill="#616161" transform="translate(298,126)"/>
<path d="M0 0 C2.97 0 5.94 0 9 0 C9 0.99 9 1.98 9 3 C7.35 3 5.7 3 4 3 C3.67 7.29 3.34 11.58 3 16 C1.68 16 0.36 16 -1 16 C-0.67 10.72 -0.34 5.44 0 0 Z " fill="#636363" transform="translate(334,129)"/>
<path d="M0 0 C0.99 0 1.98 0 3 0 C3 6.6 3 13.2 3 20 C1.68 20.33 0.36 20.66 -1 21 C-1.12109311 13.92278069 -0.85373239 7.02804699 0 0 Z " fill="#616161" transform="translate(275,124)"/>
<path d="M0 0 C0.99 0 1.98 0 3 0 C3.0270203 2.75006608 3.04684883 5.49986546 3.0625 8.25 C3.07087891 9.02730469 3.07925781 9.80460938 3.08789062 10.60546875 C3.09111328 11.35957031 3.09433594 12.11367187 3.09765625 12.890625 C3.10289307 13.58188477 3.10812988 14.27314453 3.11352539 14.98535156 C2.99437971 17.09973898 2.57618237 18.96641515 2 21 C1.01 21 0.02 21 -1 21 C-1.18451025 6.21867882 -1.18451025 6.21867882 0 0 Z " fill="#616161" transform="translate(243,124)"/>
<path d="M0 0 C1.98 0.495 1.98 0.495 4 1 C3.67 5.95 3.34 10.9 3 16 C1.68 16 0.36 16 -1 16 C-0.67 10.72 -0.34 5.44 0 0 Z " fill="#636363" transform="translate(210,129)"/>
<path d="M0 0 C1.98 0.495 1.98 0.495 4 1 C3.67 5.95 3.34 10.9 3 16 C1.68 16 0.36 16 -1 16 C-0.67 10.72 -0.34 5.44 0 0 Z " fill="#636363" transform="translate(185,129)"/>
<path d="M0 0 C1.32 0 2.64 0 4 0 C4 0.99 4 1.98 4 3 C2.68 3 1.36 3 0 3 C0 2.01 0 1.02 0 0 Z " fill="#686868" transform="translate(210,124)"/>
<path d="M0 0 C1.32 0 2.64 0 4 0 C4 0.99 4 1.98 4 3 C2.68 3 1.36 3 0 3 C0 2.01 0 1.02 0 0 Z " fill="#686868" transform="translate(185,124)"/>
<path d="" fill="#9B9B9B" transform="translate(0,0)"/>
<path d="" fill="#9B9B9B" transform="translate(0,0)"/>
<path d="" fill="#8F8F8F" transform="translate(0,0)"/>
</svg>
